<?xml version="1.0" encoding="utf-8"?>
<!-- Generator: Adobe Illustrator 23.1.1, SVG Export Plug-In . SVG Version: 6.00 Build 0)  -->
<svg version="1.1" id="Layer_1" xmlns="http://www.w3.org/2000/svg" xmlns:xlink="http://www.w3.org/1999/xlink" x="0px" y="0px"
	 viewBox="0 0 400 400" style="enable-background:new 0 0 400 400;" xml:space="preserve">
<style type="text/css">
	.st0{display:none;}
	.st1{display:inline;}
	.st2{fill:none;}
	.st3{fill:#FFFFFF;}
</style>
<g id="Twitter" class="st0">
	<g class="st1">
		<rect y="0" class="st2" width="400" height="400"/>
		<path class="st3" d="M153.6,301.6c94.3,0,145.9-78.2,145.9-145.9c0-2.2,0-4.4-0.1-6.6c10-7.2,18.7-16.3,25.6-26.6
			c-9.2,4.1-19.1,6.8-29.5,8.1c10.6-6.3,18.7-16.4,22.6-28.4c-9.9,5.9-20.9,10.1-32.6,12.4c-9.4-10-22.7-16.2-37.4-16.2
			c-28.3,0-51.3,23-51.3,51.3c0,4,0.5,7.9,1.3,11.7c-42.6-2.1-80.4-22.6-105.7-53.6c-4.4,7.6-6.9,16.4-6.9,25.8
			c0,17.8,9.1,33.5,22.8,42.7c-8.4-0.3-16.3-2.6-23.2-6.4c0,0.2,0,0.4,0,0.7c0,24.8,17.7,45.6,41.1,50.3c-4.3,1.2-8.8,1.8-13.5,1.8
			c-3.3,0-6.5-0.3-9.6-0.9c6.5,20.4,25.5,35.2,47.9,35.6c-17.6,13.8-39.7,22-63.7,22c-4.1,0-8.2-0.2-12.2-0.7
			C97.7,293.1,124.7,301.6,153.6,301.6"/>
	</g>
</g>
<g id="Github" class="st0">
	<g class="st1">
		<path class="st3" d="M311.8,138.7c-11.5-19.7-27.1-35.3-46.8-46.8s-41.2-17.2-64.5-17.2s-44.8,5.7-64.5,17.2s-35.3,27.1-46.8,46.8
			C77.7,158.3,72,179.8,72,203.1c0,28,8.2,53.2,24.5,75.5c16.3,22.4,37.5,37.8,63.3,46.4c3,0.6,5.2,0.2,6.7-1.2c1.5-1.3,2.2-3,2.2-5
			c0-0.3,0-3.3-0.1-9s-0.1-10.7-0.1-14.9l-3.8,0.7c-2.5,0.4-5.5,0.6-9.3,0.6c-3.7-0.1-7.6-0.4-11.6-1.2c-4-0.7-7.8-2.4-11.2-5
			c-3.5-2.6-5.9-6.1-7.4-10.3l-1.7-3.9c-1.1-2.6-2.9-5.4-5.3-8.5s-4.8-5.2-7.3-6.4l-1.2-0.8c-0.8-0.6-1.5-1.2-2.2-2
			s-1.2-1.6-1.5-2.3c-0.3-0.8-0.1-1.4,0.8-1.9s2.5-0.7,4.9-0.7l3.3,0.5c2.2,0.4,5,1.8,8.3,4s6,5.1,8.1,8.7c2.6,4.6,5.7,8.1,9.3,10.5
			s7.3,3.6,11,3.6s6.9-0.3,9.5-0.8c2.7-0.6,5.2-1.4,7.5-2.5c1-7.5,3.7-13.2,8.2-17.2c-6.4-0.7-12.1-1.7-17.1-3
			c-5.1-1.3-10.3-3.5-15.7-6.5s-9.9-6.7-13.5-11.2c-3.6-4.5-6.5-10.3-8.8-17.6s-3.4-15.6-3.4-25.1c0-13.5,4.4-25,13.2-34.5
			c-4.1-10.1-3.7-21.5,1.2-34.1c3.2-1,8-0.3,14.4,2.3c6.4,2.5,11,4.7,14,6.4c3,1.8,5.3,3.3,7.1,4.5c10.4-2.9,21.1-4.3,32.1-4.3
			s21.8,1.4,32.1,4.3l6.4-4c4.3-2.7,9.5-5.1,15.4-7.4c5.9-2.2,10.4-2.8,13.6-1.8c5,12.6,5.5,24,1.3,34.1c8.8,9.5,13.2,21,13.2,34.5
			c0,9.5-1.1,17.9-3.4,25.2s-5.2,13.2-8.9,17.6c-3.6,4.4-8.1,8.1-13.6,11.1c-5.4,3-10.7,5.2-15.7,6.5c-5.1,1.3-10.8,2.3-17.1,3
			c5.8,5,8.7,12.9,8.7,23.8v35.3c0,2,0.7,3.7,2.1,5c1.4,1.3,3.6,1.7,6.6,1.2c25.9-8.6,47-24.1,63.3-46.4
			c16.3-22.4,24.5-47.5,24.5-75.5C329,179.8,323.2,158.3,311.8,138.7z"/>
	</g>
</g>
<g id="Medium" class="st0">
	<g id="Page-1" class="st1">
		<path class="st3" d="M74.6,74.6v250.7h250.7V74.6H74.6z M282.9,134l-13.4,12.9c-1.2,0.9-1.7,2.3-1.5,3.8v94.7
			c-0.2,1.4,0.3,2.9,1.5,3.8l13.1,12.9v2.8h-66.1v-2.8l13.6-13.2c1.3-1.3,1.3-1.7,1.3-3.8v-76.6l-37.8,96.1h-5.1l-44-96.1v64.4
			c-0.4,2.7,0.5,5.4,2.4,7.4l17.7,21.5v2.8h-50.2v-2.8l17.7-21.5c1.9-2,2.7-4.7,2.3-7.4v-74.4c0.2-2.1-0.6-4.1-2.1-5.5l-15.7-19
			v-2.8h48.8l37.7,82.8l33.2-82.8h46.6V134z"/>
	</g>
</g>
<g id="Linkedin" class="st0">
	<g id="Layer_3" class="st1">
		<g>
			<g id="post-linkedin">
				<path class="st3" d="M300,73.4H97.4c-13.9,0-25.3,11.4-25.3,25.3v202.7c0,13.9,11.4,25.3,25.3,25.3h202.7
					c13.9,0,25.3-11.4,25.3-25.3V98.7C325.4,84.8,314,73.4,300,73.4z M148,288.7h-38v-114h38V288.7z M129,153.2
					c-12.7,0-22.8-10.1-22.8-22.8s10.1-22.8,22.8-22.8s22.8,10.1,22.8,22.8S141.7,153.2,129,153.2z M287.4,288.7h-38v-67.1
					c0-10.1-8.9-19-19-19s-19,8.9-19,19v67.1h-38v-114h38v15.2c6.3-10.1,20.3-17.7,31.7-17.7c24.1,0,44.3,20.3,44.3,44.3V288.7z"/>
			</g>
		</g>
	</g>
</g>
<path id="Youtube" class="st3" d="M321.5,139.5c-2.9-10.9-11.5-19.4-22.3-22.3c-19.7-5.3-98.7-5.3-98.7-5.3s-79,0-98.7,5.3
	c-10.9,2.9-19.4,11.5-22.3,22.3c-5.3,19.7-5.3,60.8-5.3,60.8s0,41.1,5.3,60.8c2.9,10.9,11.5,19.4,22.3,22.3
	c19.7,5.3,98.7,5.3,98.7,5.3s79,0,98.7-5.3c10.9-2.9,19.4-11.5,22.3-22.3c5.3-19.7,5.3-60.8,5.3-60.8S326.8,159.2,321.5,139.5z
	 M175.2,238.2v-75.8l65.6,37.9L175.2,238.2z"/>
</svg>
