<?xml version="1.0" encoding="utf-8"?>
<!-- Generator: Adobe Illustrator 22.1.0, SVG Export Plug-In . SVG Version: 6.00 Build 0)  -->
<svg version="1.1" xmlns="http://www.w3.org/2000/svg" xmlns:xlink="http://www.w3.org/1999/xlink" x="0px" y="0px"
	 viewBox="0 0 400 400" style="enable-background:new 0 0 400 400;" xml:space="preserve">
<style type="text/css">
	.st0{fill:#1E3C57;}
	.st1{display:none;}
	.st2{display:inline;}
	.st3{fill:none;}
</style>
<g id="Logo__x2014__FIXED">
</g>
<g id="Layer_3">
	<g>
		<g id="post-linkedin">
			<path class="st0" d="M296.3,67H93.7c-13.9,0-25.3,11.4-25.3,25.3V295c0,13.9,11.4,25.3,25.3,25.3h202.7
				c13.9,0,25.3-11.4,25.3-25.3V92.3C321.7,78.4,310.3,67,296.3,67z M144.3,282.3h-38v-114h38V282.3z M125.3,146.8
				c-12.7,0-22.8-10.1-22.8-22.8s10.1-22.8,22.8-22.8s22.8,10.1,22.8,22.8S138,146.8,125.3,146.8z M283.7,282.3h-38v-67.1
				c0-10.1-8.9-19-19-19s-19,8.9-19,19v67.1h-38v-114h38v15.2c6.3-10.1,20.3-17.7,31.7-17.7c24.1,0,44.3,20.3,44.3,44.3V282.3z"/>
		</g>
	</g>
</g>
<g id="Layer_2" class="st1">
	<g class="st2">
		<rect class="st3" width="400" height="400"/>
		<path class="st0" d="M153.6,301.6c94.3,0,145.9-78.2,145.9-145.9c0-2.2,0-4.4-0.1-6.6c10-7.2,18.7-16.3,25.6-26.6
			c-9.2,4.1-19.1,6.8-29.5,8.1c10.6-6.3,18.7-16.4,22.6-28.4c-9.9,5.9-20.9,10.1-32.6,12.4c-9.4-10-22.7-16.2-37.4-16.2
			c-28.3,0-51.3,23-51.3,51.3c0,4,0.5,7.9,1.3,11.7c-42.6-2.1-80.4-22.6-105.7-53.6c-4.4,7.6-6.9,16.4-6.9,25.8
			c0,17.8,9.1,33.5,22.8,42.7c-8.4-0.3-16.3-2.6-23.2-6.4c0,0.2,0,0.4,0,0.7c0,24.8,17.7,45.6,41.1,50.3c-4.3,1.2-8.8,1.8-13.5,1.8
			c-3.3,0-6.5-0.3-9.6-0.9c6.5,20.4,25.5,35.2,47.9,35.6c-17.6,13.8-39.7,22-63.7,22c-4.1,0-8.2-0.2-12.2-0.7
			C97.7,293.1,124.7,301.6,153.6,301.6"/>
	</g>
</g>
</svg>
