<?xml version="1.0" encoding="utf-8"?>
<!-- Generator: Adobe Illustrator 24.1.0, SVG Export Plug-In . SVG Version: 6.00 Build 0)  -->
<svg version="1.1" xmlns="http://www.w3.org/2000/svg" xmlns:xlink="http://www.w3.org/1999/xlink" x="0px" y="0px"
	 viewBox="0 0 3600 1800" style="enable-background:new 0 0 3600 1800;" xml:space="preserve">
<style type="text/css">
	.st0{fill:none;}
	.st1{fill:#3A2F88;}
	.st2{fill:none;stroke:#1E3C57;stroke-width:3;}
	.st3{fill:none;stroke:#1E3C57;stroke-width:4;}
	.st4{fill:#7DCCE1;stroke:#000000;stroke-miterlimit:10;}
	.st5{display:none;opacity:0.6;fill:#FFFFFF;stroke:#000000;stroke-miterlimit:10;}
	.st6{opacity:0.8;clip-path:url(#SVGID_2_);fill:#FFFFFF;stroke:#000000;stroke-miterlimit:10;}
	.st7{fill:none;stroke:#1E3C57;stroke-width:5;stroke-miterlimit:10;}
	.st8{fill:#1E3C57;stroke:#1E3C57;stroke-miterlimit:10;}
	.st9{fill:url(#SVGID_3_);}
	.st10{fill:url(#SVGID_4_);}
	.st11{fill:#FFFFFF;}
	.st12{fill:#FABC58;}
	.st13{fill:url(#SVGID_5_);}
	.st14{fill:#1E3C57;stroke:#1E3C57;stroke-width:5;stroke-miterlimit:10;}
	.st15{fill:url(#SVGID_6_);}
	.st16{fill:none;stroke:url(#_x36__lpi_10_x25_);stroke-miterlimit:10;}
	.st17{display:none;}
	.st18{display:inline;}
	.st19{fill:url(#SVGID_7_);}
	.st20{fill:url(#SVGID_8_);}
	.st21{fill:#1E3C57;}
	.st22{fill:none;stroke:#FFFFFF;stroke-width:5;stroke-miterlimit:10;}
	.st23{display:inline;fill:#FFFFFF;stroke:#1E3C57;stroke-width:5;stroke-miterlimit:10;}
	.st24{fill:url(#Grid_.25_inch_Lines);}
	.st25{fill:none;stroke:#3A2F88;stroke-width:5;stroke-miterlimit:10;}
	.st26{display:inline;fill:#FFFFFF;stroke:#3A2F88;stroke-width:5;stroke-miterlimit:10;}
	.st27{display:inline;fill:#1E3C57;stroke:#1E3C57;stroke-width:5;stroke-miterlimit:10;}
	.st28{display:inline;fill:#3A2F88;stroke:#1E3C57;stroke-width:5;stroke-miterlimit:10;}
</style>
<pattern  x="1249.8" y="663.1" width="48" height="48" patternUnits="userSpaceOnUse" id="_x36__dpi_20_x25_" viewBox="2.4 -50.4 48 48" style="overflow:visible;">
	<g>
		<rect x="2.4" y="-50.4" class="st0" width="48" height="48"/>
		<g>
			<path class="st1" d="M26.4,0c1.3,0,2.4-1.1,2.4-2.4c0-1.3-1.1-2.4-2.4-2.4c-1.3,0-2.4,1.1-2.4,2.4C24-1.1,25.1,0,26.4,0z"/>
			<path class="st1" d="M50.4,0c1.3,0,2.4-1.1,2.4-2.4c0-1.3-1.1-2.4-2.4-2.4c-1.3,0-2.4,1.1-2.4,2.4C48-1.1,49.1,0,50.4,0z"/>
			<path class="st1" d="M26.4-24c1.3,0,2.4-1.1,2.4-2.4c0-1.3-1.1-2.4-2.4-2.4c-1.3,0-2.4,1.1-2.4,2.4C24-25.1,25.1-24,26.4-24z"/>
			<path class="st1" d="M50.4-24c1.3,0,2.4-1.1,2.4-2.4c0-1.3-1.1-2.4-2.4-2.4c-1.3,0-2.4,1.1-2.4,2.4C48-25.1,49.1-24,50.4-24z"/>
			<path class="st1" d="M38.4-12c1.3,0,2.4-1.1,2.4-2.4c0-1.3-1.1-2.4-2.4-2.4c-1.3,0-2.4,1.1-2.4,2.4C36-13.1,37.1-12,38.4-12z"/>
			<path class="st1" d="M14.4-12c1.3,0,2.4-1.1,2.4-2.4c0-1.3-1.1-2.4-2.4-2.4c-1.3,0-2.4,1.1-2.4,2.4C12-13.1,13.1-12,14.4-12z"/>
			<path class="st1" d="M38.4-36c1.3,0,2.4-1.1,2.4-2.4c0-1.3-1.1-2.4-2.4-2.4c-1.3,0-2.4,1.1-2.4,2.4C36-37.1,37.1-36,38.4-36z"/>
			<path class="st1" d="M14.4-36c1.3,0,2.4-1.1,2.4-2.4c0-1.3-1.1-2.4-2.4-2.4c-1.3,0-2.4,1.1-2.4,2.4C12-37.1,13.1-36,14.4-36z"/>
		</g>
		<g>
			<path class="st1" d="M2.4,0c1.3,0,2.4-1.1,2.4-2.4c0-1.3-1.1-2.4-2.4-2.4C1.1-4.8,0-3.7,0-2.4C0-1.1,1.1,0,2.4,0z"/>
			<path class="st1" d="M2.4-24c1.3,0,2.4-1.1,2.4-2.4c0-1.3-1.1-2.4-2.4-2.4c-1.3,0-2.4,1.1-2.4,2.4C0-25.1,1.1-24,2.4-24z"/>
		</g>
		<g>
			<path class="st1" d="M26.4-48c1.3,0,2.4-1.1,2.4-2.4c0-1.3-1.1-2.4-2.4-2.4c-1.3,0-2.4,1.1-2.4,2.4C24-49.1,25.1-48,26.4-48z"/>
			<path class="st1" d="M50.4-48c1.3,0,2.4-1.1,2.4-2.4c0-1.3-1.1-2.4-2.4-2.4c-1.3,0-2.4,1.1-2.4,2.4C48-49.1,49.1-48,50.4-48z"/>
		</g>
		<g>
			<path class="st1" d="M2.4-48c1.3,0,2.4-1.1,2.4-2.4c0-1.3-1.1-2.4-2.4-2.4c-1.3,0-2.4,1.1-2.4,2.4C0-49.1,1.1-48,2.4-48z"/>
		</g>
	</g>
</pattern>
<pattern  x="1249.8" y="663.1" width="48" height="48" patternUnits="userSpaceOnUse" id="_x36__dpi_30_x25_" viewBox="3.6 -51.6 48 48" style="overflow:visible;">
	<g>
		<rect x="3.6" y="-51.6" class="st0" width="48" height="48"/>
		<g>
			<circle class="st1" cx="27.6" cy="-3.6" r="3.6"/>
			<circle class="st1" cx="51.6" cy="-3.6" r="3.6"/>
			<circle class="st1" cx="27.6" cy="-27.6" r="3.6"/>
			<circle class="st1" cx="51.6" cy="-27.6" r="3.6"/>
			<circle class="st1" cx="39.6" cy="-15.6" r="3.6"/>
			<circle class="st1" cx="15.6" cy="-15.6" r="3.6"/>
			<circle class="st1" cx="39.6" cy="-39.6" r="3.6"/>
			<circle class="st1" cx="15.6" cy="-39.6" r="3.6"/>
		</g>
		<g>
			<circle class="st1" cx="3.6" cy="-3.6" r="3.6"/>
			<circle class="st1" cx="3.6" cy="-27.6" r="3.6"/>
		</g>
		<g>
			<circle class="st1" cx="27.6" cy="-51.6" r="3.6"/>
			<circle class="st1" cx="51.6" cy="-51.6" r="3.6"/>
		</g>
		<g>
			<circle class="st1" cx="3.6" cy="-51.6" r="3.6"/>
		</g>
	</g>
</pattern>
<pattern  x="1249.8" y="663.1" width="72" height="72" patternUnits="userSpaceOnUse" id="_x36__lpi_10_x25_" viewBox="72.2 -72 72 72" style="overflow:visible;">
	<g>
		<rect x="72.2" y="-72" class="st0" width="72" height="72"/>
		<g>
			<line class="st2" x1="144" y1="-18" x2="216.5" y2="-18"/>
			<line class="st2" x1="144" y1="-42" x2="216.5" y2="-42"/>
			<line class="st2" x1="144" y1="-66" x2="216.5" y2="-66"/>
		</g>
		<g>
			<line class="st2" x1="72" y1="-18" x2="144.5" y2="-18"/>
			<line class="st2" x1="72" y1="-42" x2="144.5" y2="-42"/>
			<line class="st2" x1="72" y1="-66" x2="144.5" y2="-66"/>
		</g>
		<g>
			<line class="st2" x1="0" y1="-18" x2="72.5" y2="-18"/>
			<line class="st2" x1="0" y1="-42" x2="72.5" y2="-42"/>
			<line class="st2" x1="0" y1="-66" x2="72.5" y2="-66"/>
		</g>
	</g>
</pattern>
<pattern  x="1249.8" y="663.1" width="72" height="72" patternUnits="userSpaceOnUse" id="Grid_.25_inch_Lines" viewBox="72.2 -144.2 72 72" style="overflow:visible;">
	<g>
		<rect x="72.2" y="-144.2" class="st0" width="72" height="72"/>
		<g>
			<line class="st3" x1="99.2" y1="-72.5" x2="99.2" y2="0"/>
		</g>
		<g>
			<line class="st3" x1="144" y1="-81.2" x2="216.5" y2="-81.2"/>
		</g>
		<g>
			<line class="st3" x1="72" y1="-81.2" x2="144.5" y2="-81.2"/>
			<line class="st3" x1="99.2" y1="-144.5" x2="99.2" y2="-72"/>
		</g>
		<g>
			<line class="st3" x1="0" y1="-81.2" x2="72.5" y2="-81.2"/>
		</g>
		<g>
			<line class="st3" x1="99.2" y1="-216.5" x2="99.2" y2="-144"/>
		</g>
	</g>
</pattern>
<g id="Layer_2">
	<rect class="st4" width="3600" height="1800"/>
	<polygon class="st5" points="3395.7,1285.4 171.9,1656.3 171.9,514.6 3395.7,143.7 	"/>
</g>
<g id="Layer_3">
	<g>
		<defs>
			<rect id="SVGID_1_" width="3600" height="1800"/>
		</defs>
		<clipPath id="SVGID_2_">
			<use xlink:href="#SVGID_1_"  style="overflow:visible;"/>
		</clipPath>
		<polygon class="st6" points="2294.4,986.6 1125.6,1864.2 -218.7,1290.9 -394.4,-160 774.3,-1037.6 2118.7,-464.3 		"/>
	</g>
	<circle class="st7" cx="1214.3" cy="232.5" r="14.2"/>
	<circle class="st7" cx="2499.2" cy="100.5" r="19"/>
	<circle class="st7" cx="2246.7" cy="50" r="9.5"/>
	<circle class="st7" cx="1624.8" cy="59.5" r="19"/>
	<circle class="st7" cx="2537.2" cy="922.5" r="19"/>
	<circle class="st7" cx="836.7" cy="454.1" r="9.5"/>
	<circle class="st7" cx="1025.2" cy="205.7" r="19"/>
	<circle class="st7" cx="835.4" cy="1104.7" r="19"/>
	<circle class="st7" cx="908.4" cy="1593.8" r="14.2"/>
	<circle class="st7" cx="2573.6" cy="494.8" r="13.2"/>
	<g>
		<polygon class="st7" points="1062.5,385 1039.6,390.7 1017.6,397.5 995.1,405.1 988.4,380.2 1010.4,373.2 1032.8,367.6 
			1054.4,361.3 		"/>
	</g>
	<g>
		<polygon class="st7" points="878.5,725.4 868.1,700.3 857.5,675.4 874.7,667.9 886.4,692.5 896.7,718.3 		"/>
	</g>
	<g>
		<polygon class="st7" points="2138.7,155.4 2115.5,152.6 2092.7,149.2 2069.4,147.2 2072.7,122.1 2095.7,123.9 2118.3,128.3 
			2140.8,130.6 		"/>
	</g>
	<g>
		<polygon class="st7" points="1281.7,114.6 1253.8,110.1 1226,107.5 1228.8,87.5 1256,91.2 1284.1,93.3 		"/>
	</g>
	<g>
		<polygon class="st7" points="2531.8,288.7 2504.1,286 2476.6,282 2478.6,261.1 2506.5,265.8 2533.8,268.7 		"/>
	</g>
	<g>
		<polygon class="st7" points="1094.7,1476 1079.1,1460 1063.3,1443.2 1046.8,1426.3 1066,1409.5 1082,1425.8 1097.2,1443.2 
			1114,1460 		"/>
	</g>
	<g>
		<polygon class="st7" points="2530.4,614.4 2516.4,631.9 2501.8,649.6 2486.2,666.8 2466.8,650.3 2481.8,632.5 2496.6,614.8 
			2512.3,597.4 		"/>
	</g>
	<circle class="st7" cx="2724.8" cy="136" r="19"/>
	<circle class="st7" cx="2837.2" cy="456" r="13.2"/>
	<g>
		<polygon class="st7" points="2755.3,293.6 2739.9,316.8 2723.5,339.2 2706,327.6 2723.2,305.2 2738.6,282.5 		"/>
	</g>
	<g>
		<polygon class="st7" points="2742.9,699.2 2743.7,721.6 2744.2,744.7 2743.6,767.8 2718.2,768 2717.8,744.7 2717.6,721.6 
			2718.1,698.2 		"/>
	</g>
	<g>
		<polygon class="st7" points="911.8,115.6 894.6,137.1 875.9,157.1 860.8,144.5 879.4,124 896.8,102.1 		"/>
	</g>
	<circle class="st7" cx="561.7" cy="375.3" r="9.5"/>
	<circle class="st7" cx="547.6" cy="1000" r="19"/>
	<g>
		<polygon class="st7" points="574.9,712.7 595.5,694.9 615.9,677.2 628.4,691.2 608.6,710 587.3,727.8 		"/>
	</g>
	<g>
		<polygon class="st7" points="624.4,109.1 622.2,136.5 617.8,163.6 598.2,161.5 602.2,134.1 604.4,106.3 		"/>
	</g>
	<circle class="st7" cx="451" cy="696.7" r="9.5"/>
	<g>
		<polygon class="st7" points="366.4,857.2 343.8,842.1 321.2,827.2 331.3,811.4 354.7,825.5 377.6,841.2 		"/>
	</g>
	<g>
		<polygon class="st7" points="403.6,1183.5 376.5,1181.4 349.5,1179.6 350.5,1160.8 377.8,1161.6 405.5,1164 		"/>
	</g>
	<circle class="st7" cx="538.1" cy="1411.1" r="9.5"/>
	<g>
		<polygon class="st7" points="711.5,1357.4 716.7,1384.1 722.1,1410.6 703.8,1414.6 697.2,1388.1 692.2,1360.8 		"/>
	</g>
	<g>
		<polygon class="st7" points="426.8,203.8 409.6,225.3 390.8,245.3 375.7,232.6 394.3,212.1 411.7,190.3 		"/>
	</g>
	<circle class="st7" cx="83.2" cy="442.2" r="9.5"/>
	<circle class="st7" cx="83.2" cy="1153.2" r="19"/>
	<g>
		<polygon class="st7" points="160.1,697.9 169.3,672.3 178.2,646.7 196,652.7 188.1,678.8 178.4,704.8 		"/>
	</g>
	<g>
		<polygon class="st7" points="139.5,129.5 136,156.7 130.5,183.6 111,180.7 116.2,153.5 119.6,125.8 		"/>
	</g>
	<polygon class="st8" points="1422.1,720.1 1207.8,592.8 1020.1,481.3 901.8,1363.7 1864.9,983.1 	"/>
	<g>
		<g>
			<polygon class="st7" points="2415.3,594.3 2411.6,569.3 2406.6,545.2 2403.3,520.8 2400.4,496.4 2395,472.4 2391.3,448.1 
				2388.9,423.6 2385,399.3 2379.8,375.3 2377.6,350.7 2372.8,326.6 2369.1,302.3 2366.4,277.8 2362.5,253.6 2358.6,229.3 
				2354.9,205 2350.2,181.3 2327.2,185.2 2303.6,188.2 2280,191.1 2256.7,195.8 2233,198 2209.6,201.8 2186.3,206.6 2162.8,210.5 
				2139.1,212.5 2115.6,216.2 2092.4,221.7 2068.7,224.1 2045.3,227.9 2021.7,230.7 1998.3,235.3 1974.9,239.5 1951.5,243.3 
				1927.9,246.7 1904.2,249.1 1880.9,253.4 1857.4,257.5 1833.9,260.5 1810.5,264.8 1786.8,267.4 1763.6,272.6 1740.1,276.3 
				1716.4,278.8 1692.9,282.3 1669.4,285.9 1646.1,290.5 1622.6,294.2 1599.2,297.3 1599.1,322.8 1598.5,348.5 1599.6,374.2 
				1598.3,399.9 1599.2,425.7 1574.1,424.8 1549.3,424.8 1524.4,426.3 1499.5,426.1 1474.6,424.7 1449.8,425.7 1424.9,426.3 
				1400,426.4 1375.1,425.8 1349.9,426 1350.1,403.1 1350.1,380.6 1350.8,358.1 1349.9,336.1 1325.9,340 1301.5,343.5 1276.9,346.2 
				1252.7,351.3 1228.3,354.8 1203.7,357.4 1179.5,362.1 1182.2,385.5 1187.3,408.6 1190.2,432 1194.3,455.2 1197.1,478.6 
				1200.3,502 1204.9,525.1 1208,548.5 1211.2,571.8 1214.5,595.2 1219.7,617.9 1240.2,631.6 1262.1,643.5 1283.6,656.1 
				1304.9,669.1 1326.6,681.3 1347.9,694.3 1368.7,708.1 1390.6,720.1 1412,732.8 1433.3,746.4 1457.5,742.4 1481.3,738.2 
				1505.2,734.4 1529.1,730.5 1553.1,727.1 1576.9,722.6 1600.8,718.7 1624.7,715.2 1648.9,712.8 1672.8,709.2 1696.6,704.6 
				1720.5,701 1744.4,696.6 1768.5,694.6 1792.2,689.3 1816.3,686.3 1840.2,682.7 1864.2,679.5 1888.1,675.7 1911.9,671 
				1935.8,667.5 1959.8,663.7 1983.7,660.2 2007.8,657.7 2031.7,653.7 2055.7,650.1 2079.4,644.9 2103.3,641 2127.3,637.9 
				2151.2,634 2175,629.8 2199.3,627.9 2223.1,623.7 2247.1,620.3 2270.9,615.9 2295,613 2318.8,608.6 2342.6,603.9 2366.7,601.7 
				2390.4,596.5 			"/>
		</g>
		<g>
			<polygon class="st7" points="1243.7,774.5 1240.3,752.6 1237.3,730.1 1233.1,707.9 1229.2,685.5 1226.9,663 1222.3,640.7 
				1218.5,618.8 1198.1,606.1 1177.1,594 1156.6,581.1 1136.1,568.1 1114.8,556.4 1093.6,544.6 1072.7,532.3 1052.3,519.2 
				1031.4,506.8 1028,530.7 1024.5,554.5 1022,578.4 1018.4,602.2 1016,626.2 1012.3,649.9 1008.5,673.7 1006.2,697.7 1002.7,721.5 
				999.3,745.3 996.3,769.1 993.2,793 990.2,816.9 986.5,840.7 984.2,864.6 979.9,888.3 977.3,912.2 974,936.1 971,959.9 
				967.7,983.8 965.2,1007.7 961.3,1031.5 958.9,1055.4 954.1,1079.1 951.1,1102.9 948.9,1126.9 945.7,1150.8 941.9,1174.5 
				939.6,1198.5 934.8,1222.1 933.3,1246.2 929.1,1269.9 926.7,1293.9 922.9,1317.7 919.9,1341.5 916.5,1365.4 912.7,1389.8 
				935.4,1379.9 957.6,1370.6 980.2,1362.3 1003,1354.3 1025.4,1345.7 1047.3,1335.6 1069.7,1326.5 1092.4,1318.5 1114.5,1308.9 
				1136.8,1299.8 1159.5,1291.8 1181.7,1282.5 1204.3,1274.2 1226.5,1264.7 1249.3,1257 1271.2,1246.7 1293.7,1238.4 1315.9,1229 
				1338.9,1221.5 1361.1,1212.3 1383.7,1204 1405.8,1194.3 1428,1185.1 1450.7,1177 1473.1,1167.9 1495.6,1159.5 1517.8,1150.1 
				1540.5,1141.9 1562.9,1133 1584.9,1123.3 1607.4,1114.6 1630.2,1106.7 1652.1,1096.6 1674.4,1087.6 1697.2,1079.7 1719.7,1071.2 
				1741.8,1061.7 1764.1,1052.5 1786.8,1044.5 1808.9,1034.7 1831.3,1025.8 1854.1,1018.1 1875.5,1008.5 1855.6,995.3 1833.8,984 
				1813.4,970.3 1791.9,958.6 1770.9,945.9 1750.1,932.8 1728.6,921 1707.6,908.3 1686,896.7 1665.7,882.9 1643.9,871.5 1623,858.8 
				1602.6,845 1581,833.5 1560.2,820.4 1539,808 1517.4,796.3 1496.3,783.9 1475.7,770.6 1454.7,757.8 1433.5,745.1 1409.8,749.9 
				1385.9,752.8 1362.2,756.6 1338.5,760.6 1314.6,764 1290.9,768 1267,770.8 			"/>
		</g>
		<pattern  id="SVGID_3_" xlink:href="#_x36__dpi_20_x25_" patternTransform="matrix(1 0 0 1 143.8569 -204.3311)">
		</pattern>
		<polygon class="st9" points="1433.4,745.6 1219.1,618.3 1243.4,775 		"/>
		<g>
			<polygon class="st7" points="1599.4,176.4 1574.1,176.5 1549.3,176.7 1524.4,176.6 1499.5,176 1474.6,176.9 1449.8,176.8 
				1424.9,177.4 1400,177.7 1375.1,175.8 1350.7,177.3 1350.3,199.5 1349.8,222.2 1350.9,244.9 1349.8,267.6 1350.2,290.3 
				1349.3,312.9 1350.2,335.8 1375,330.9 1400.1,328.8 1424.7,323.2 1449.9,321.2 1474.8,317.3 1499.4,311.8 1524.3,308.3 
				1549.2,304.4 1574,300.1 1598.7,296.9 1599.3,273.1 1599.5,249 1599.3,224.9 1599.6,200.9 			"/>
		</g>
		<pattern  id="SVGID_4_" xlink:href="#_x36__dpi_20_x25_" patternTransform="matrix(1 0 0 1 143.8569 -204.3311)">
		</pattern>
		<polygon class="st10" points="1599,425.6 1599,297.1 1350.2,335.6 1350.2,425.6 		"/>
	</g>
	<g>
		<polyline class="st11" points="1746.9,365.8 1726.6,378.6 1705.5,390.2 1685.7,404 1667.1,419.3 1647.9,433.8 1630.3,450.3 
			1611.9,465.8 1595.8,483.8 1579.9,501.8 1564.6,520.3 1550.2,539.6 1537,559.7 1526,581.1 1514.4,602.2 1505.2,624.5 
			1499.5,647.9 1493.6,671.2 1490.6,695 1488.5,719 1488.7,742.7 1473.8,761.3 1464,783.1 1459.4,806.6 1472,826.6 1495,832.1 
			1515.6,827.9 1532,815.1 1539.2,795.3 1540.5,774.3 1539,749.4 1541.3,724.6 1544.4,699.9 1551.2,675.9 1561.6,653.2 
			1572.6,630.9 1586.6,610.3 1602.5,591.1 1619.3,572.6 1638.5,556.6 1658.7,542.1 1680,529.2 		"/>
		<polyline class="st7" points="1746.9,365.8 1726.6,378.6 1705.5,390.2 1685.7,404 1667.1,419.3 1647.9,433.8 1630.3,450.3 
			1611.9,465.8 1595.8,483.8 1579.9,501.8 1564.6,520.3 1550.2,539.6 1537,559.7 1526,581.1 1514.4,602.2 1505.2,624.5 
			1499.5,647.9 1493.6,671.2 1490.6,695 1488.5,719 1488.7,742.7 1473.8,761.3 1464,783.1 1459.4,806.6 1472,826.6 1495,832.1 
			1515.6,827.9 1532,815.1 1539.2,795.3 1540.5,774.3 1539,749.4 1541.3,724.6 1544.4,699.9 1551.2,675.9 1561.6,653.2 
			1572.6,630.9 1586.6,610.3 1602.5,591.1 1619.3,572.6 1638.5,556.6 1658.7,542.1 1680,529.2 		"/>
	</g>
	<g>
		<polygon class="st12" points="1497.8,1086.8 1474.9,1078 1452.2,1068.8 1429.6,1059.1 1406.7,1050.2 1383.9,1041.1 1360.8,1032.8 
			1338.3,1023.1 1315.5,1014 1292,1006.5 1275.5,988.9 1275.3,965.4 1283.7,942.3 1292.6,919.4 1300.8,896.2 1311,873.9 
			1318.8,850.5 1327.4,827.5 1344.6,810.1 1368.7,810.2 1391.3,819.8 1414.8,827.1 1437.5,836.3 1460.3,845.5 1483.1,854.5 
			1506.2,862.8 1528.9,872.3 1551.8,881.1 1574.2,891.2 1591.6,907.1 1593.1,931.3 1583.8,954 1573.9,976.5 1565.9,999.8 
			1556.9,1022.6 1548.1,1045.6 1539.5,1068.6 1522.4,1086.2 		"/>
		<polygon class="st7" points="1497.8,1086.8 1474.9,1078 1452.2,1068.8 1429.6,1059.1 1406.7,1050.2 1383.9,1041.1 1360.8,1032.8 
			1338.3,1023.1 1315.5,1014 1292,1006.5 1275.5,988.9 1275.3,965.4 1283.7,942.3 1292.6,919.4 1300.8,896.2 1311,873.9 
			1318.8,850.5 1327.4,827.5 1344.6,810.1 1368.7,810.2 1391.3,819.8 1414.8,827.1 1437.5,836.3 1460.3,845.5 1483.1,854.5 
			1506.2,862.8 1528.9,872.3 1551.8,881.1 1574.2,891.2 1591.6,907.1 1593.1,931.3 1583.8,954 1573.9,976.5 1565.9,999.8 
			1556.9,1022.6 1548.1,1045.6 1539.5,1068.6 1522.4,1086.2 		"/>
	</g>
	<g>
		<polygon class="st11" points="1331.6,1402.2 1342.5,1380.4 1352.5,1358.7 1362,1336.7 1373.7,1315.7 1383.3,1293.7 1392.4,1271.5 
			1403.8,1250.4 1412.5,1228 1423.8,1206.8 1433.1,1184.7 1442.7,1162.8 1452.9,1141.1 1463.1,1119.4 1472.4,1097.3 1482.1,1075.4 
			1491.5,1053.4 1502.5,1032 1511,1009.6 1520.4,987.6 1529.6,965.4 1540.3,943.9 1549,921.6 1558.7,899.7 1567.4,877.3 
			1575.6,854.8 1583.8,831.9 1591.5,808.9 1598.8,785.7 1606.3,762.6 1613,739.1 1617.4,715.2 1623.6,691.7 1628.9,667.9 
			1633.9,644.1 1639.4,620.4 1644.6,596.7 1650.1,573 1656.1,549.4 1662.5,525.9 1669.3,502.6 1677.2,479.6 1684.9,456.5 
			1696,434.8 1706.2,412.7 1720.4,393 1735,373.6 1753.2,357.6 1772.7,343.1 1794.8,332.8 1794.4,312 1783.5,289.1 1773.6,265.9 
			1769.8,241 1774,216.5 1783.6,194.8 1798.5,176.6 1819.7,166.5 1843.4,166.7 1865.4,171.3 1882.6,185.5 1895.2,204.2 
			1899.8,226.5 1915.5,257.7 1901.4,261.3 1895.5,285.6 1881.4,305.3 1859.2,316.4 1859.8,336.5 1876.8,355 1888.3,375.3 
			1893.7,397.8 1897.2,420.9 1896.1,444.2 1893.5,467.4 1891.1,490.6 1886.2,513.4 1882.4,536.4 1879.2,559.5 1878.4,582.7 
			1890.9,594.6 1911.7,582.4 1933,571.2 1953.8,558.9 1974.4,546.3 1996,535.5 2017.9,525.5 2040,515.7 2063,508.6 2086.3,502.6 
			2110.1,501 2132.8,507.5 2148.9,524.6 2158.7,547.4 2167.5,570.6 2173.6,594.7 2179,618.9 2185.5,642.9 2189.4,667.4 
			2191.1,692.3 2209.7,705.7 2229.6,717 2248.6,729.7 2266.7,742.7 2242.9,742.6 2218.7,741.7 2194.5,742 2170.2,741.5 2146,742.1 
			2121.5,742.7 2120.1,717.5 2116.1,693.2 2112,669 2107.8,644.8 2102.6,620.8 2089,602.2 2067.4,612.7 2046.5,625.5 2026.5,639.7 
			2006.3,653.7 1986.8,668.5 1967.5,683.7 1948.5,699.2 1929,714.2 1910.4,730.2 1892.8,747.4 1874.4,763.5 1856.7,780.6 
			1838.1,796.6 1821.7,815 1804.2,832.2 1787.6,850.2 1771.3,868.6 1755.2,887.1 1738.2,904.9 1723.4,924.5 1709.2,944.5 
			1695.1,963.9 1681,983.4 1667.3,1003.1 1653.2,1022.6 1639.2,1042.1 1626.2,1062.3 1612.7,1082.1 1598.1,1101.3 1585.7,1121.9 
			1573.2,1142.4 1559.9,1162.5 1546.6,1182.5 1533.5,1202.6 1521.2,1223.2 1508.7,1243.8 1496.3,1264.4 1483.6,1284.7 
			1470.3,1304.8 1458.5,1325.7 1446.7,1345.6 1466.6,1360.6 1488.2,1373.8 1508.8,1388.4 1529.9,1401.8 1505.4,1402.2 
			1480.6,1401.2 1455.8,1402.2 1431,1402.6 1406.2,1401.1 1381.4,1402.2 1356.6,1402.2 		"/>
		<polygon class="st7" points="1331.6,1402.2 1342.5,1380.4 1352.5,1358.7 1362,1336.7 1373.7,1315.7 1383.3,1293.7 1392.4,1271.5 
			1403.8,1250.4 1412.5,1228 1423.8,1206.8 1433.1,1184.7 1442.7,1162.8 1452.9,1141.1 1463.1,1119.4 1472.4,1097.3 1482.1,1075.4 
			1491.5,1053.4 1502.5,1032 1511,1009.6 1520.4,987.6 1529.6,965.4 1540.3,943.9 1549,921.6 1558.7,899.7 1567.4,877.3 
			1575.6,854.8 1583.8,831.9 1591.5,808.9 1598.8,785.7 1606.3,762.6 1613,739.1 1617.4,715.2 1623.6,691.7 1628.9,667.9 
			1633.9,644.1 1639.4,620.4 1644.6,596.7 1650.1,573 1656.1,549.4 1662.5,525.9 1669.3,502.6 1677.2,479.6 1684.9,456.5 
			1696,434.8 1706.2,412.7 1720.4,393 1735,373.6 1753.2,357.6 1772.7,343.1 1794.8,332.8 1794.4,312 1783.5,289.1 1773.6,265.9 
			1769.8,241 1774,216.5 1783.6,194.8 1798.5,176.6 1819.7,166.5 1843.4,166.7 1865.4,171.3 1882.6,185.5 1895.2,204.2 
			1899.8,226.5 1915.5,257.7 1901.4,261.3 1895.5,285.6 1881.4,305.3 1859.2,316.4 1859.8,336.5 1876.8,355 1888.3,375.3 
			1893.7,397.8 1897.2,420.9 1896.1,444.2 1893.5,467.4 1891.1,490.6 1886.2,513.4 1882.4,536.4 1879.2,559.5 1878.4,582.7 
			1890.9,594.6 1911.7,582.4 1933,571.2 1953.8,558.9 1974.4,546.3 1996,535.5 2017.9,525.5 2040,515.7 2063,508.6 2086.3,502.6 
			2110.1,501 2132.8,507.5 2148.9,524.6 2158.7,547.4 2167.5,570.6 2173.6,594.7 2179,618.9 2185.5,642.9 2189.4,667.4 
			2191.1,692.3 2209.7,705.7 2229.6,717 2248.6,729.7 2266.7,742.7 2242.9,742.6 2218.7,741.7 2194.5,742 2170.2,741.5 2146,742.1 
			2121.5,742.7 2120.1,717.5 2116.1,693.2 2112,669 2107.8,644.8 2102.6,620.8 2089,602.2 2067.4,612.7 2046.5,625.5 2026.5,639.7 
			2006.3,653.7 1986.8,668.5 1967.5,683.7 1948.5,699.2 1929,714.2 1910.4,730.2 1892.8,747.4 1874.4,763.5 1856.7,780.6 
			1838.1,796.6 1821.7,815 1804.2,832.2 1787.6,850.2 1771.3,868.6 1755.2,887.1 1738.2,904.9 1723.4,924.5 1709.2,944.5 
			1695.1,963.9 1681,983.4 1667.3,1003.1 1653.2,1022.6 1639.2,1042.1 1626.2,1062.3 1612.7,1082.1 1598.1,1101.3 1585.7,1121.9 
			1573.2,1142.4 1559.9,1162.5 1546.6,1182.5 1533.5,1202.6 1521.2,1223.2 1508.7,1243.8 1496.3,1264.4 1483.6,1284.7 
			1470.3,1304.8 1458.5,1325.7 1446.7,1345.6 1466.6,1360.6 1488.2,1373.8 1508.8,1388.4 1529.9,1401.8 1505.4,1402.2 
			1480.6,1401.2 1455.8,1402.2 1431,1402.6 1406.2,1401.1 1381.4,1402.2 1356.6,1402.2 		"/>
	</g>
	<g>
		<polygon class="st12" points="1564.8,1781.4 1588.5,1782.5 1612.6,1782.4 1636.7,1781.1 1660.8,1780.9 1684.9,1782.6 1709,1782.5 
			1733.2,1780.6 1757.3,1781.8 1781.4,1781.7 1805.5,1782.5 1829.6,1781.6 1853.7,1781 1877.9,1780.8 1902,1781 1926.1,1782.3 
			1950.2,1781.6 1974.3,1781.1 1998.5,1781.8 2022.6,1781.1 2046.7,1782.2 2070.8,1780.6 2094.9,1780.6 2119.1,1781.8 
			2143.2,1781.8 2167.3,1781.9 2191.4,1780.9 2215.5,1780.9 2239.7,1781.3 2263.8,1781.5 2287.9,1782.1 2312,1780.9 2336.1,1782.3 
			2360.3,1781.3 2384.4,1782.3 2408.5,1782.3 2432.6,1780.8 2456.8,1781.1 2480.9,1782.4 2505,1781.5 2504.3,1757.4 2504.1,1733.2 
			2504.8,1709.1 2504.5,1684.9 2504.8,1660.7 2504.9,1636.5 2505.6,1612.4 2504.4,1588.2 2504.4,1564 2504.7,1539.9 2505.8,1515.7 
			2504.5,1491.5 2504.7,1467.3 2505.9,1443.2 2505,1419 2505.9,1394.8 2504.3,1370.6 2505,1346.5 2504.5,1322.3 2505.4,1298.1 
			2505.8,1274 2504.8,1249.8 2505.3,1225.6 2505.7,1201.4 2506,1177.2 2504.2,1153.1 2505.7,1128.9 2504.9,1105 2495.3,1125.9 
			2484.9,1146.7 2475.4,1168 2465,1188.9 2453.8,1209.3 2444.4,1230.7 2434.3,1251.7 2423.4,1272.3 2413.6,1293.4 2403.9,1314.6 
			2393.9,1335.7 2384,1356.8 2373.6,1377.6 2363.5,1399.4 2350.7,1378.2 2338.8,1357.2 2328,1335.7 2316.1,1314.7 2303.3,1294.2 
			2291.4,1273.3 2279.5,1253.1 2267.6,1272.9 2257.9,1294.6 2246.1,1315.3 2234.8,1336.3 2223.2,1357 2212.1,1378 2201.9,1399.5 
			2190.5,1420.4 2179.3,1441.4 2168.1,1462.4 2155.8,1482.8 2144.9,1503.9 2133.6,1524.9 2123.8,1546.6 2112.8,1567.7 
			2101.1,1588.4 2090.1,1609.5 2078.7,1631.2 2059,1613.2 2038.6,1597.2 2018.7,1580.6 1998.2,1564.8 1978.5,1547.8 1958,1531.9 
			1945,1551.9 1930.1,1570.5 1917.6,1590.8 1903.2,1609.8 1890,1629.6 1876,1648.9 1862.3,1668.4 1847.7,1687.1 1834.8,1707.2 
			1820.7,1726.8 1800.2,1716.1 1778.9,1708.1 1758.7,1697.6 1737.9,1688.4 1717.2,1679 1696.4,1670.6 1677,1685.4 1658.7,1702 
			1639.7,1717.7 1621.3,1734.2 1602.5,1750.2 1583.3,1765.7 		"/>
	</g>
	<g>
		<polygon class="st7" points="1542.5,1781.5 1566.5,1781.6 1590.6,1782.1 1614.7,1782.1 1638.9,1781 1663,1781.2 1687.1,1781.2 
			1711.2,1781.3 1735.3,1782.6 1759.4,1782.3 1783.6,1782.4 1807.7,1780.9 1831.8,1780.6 1855.9,1781.3 1880,1781.1 1904.1,1780.6 
			1928.3,1782.4 1952.4,1781.9 1976.5,1782.2 2000.6,1781.5 2024.7,1782.3 2048.9,1781.6 2073,1780.7 2097.1,1782.1 2121.2,1780.6 
			2145.3,1781.4 2169.5,1780.7 2193.6,1780.9 2217.7,1780.9 2241.8,1782 2266,1780.9 2290.1,1781 2314.2,1782.5 2338.3,1780.9 
			2362.4,1782.1 2386.6,1782 2410.7,1782 2434.8,1781 2458.9,1782.3 2483,1781.4 2483.2,1757.4 2482.5,1733.2 2482.4,1709.1 
			2482.9,1684.9 2482.7,1660.7 2483.4,1636.5 2483.2,1612.4 2482.4,1588.2 2484,1564 2483.4,1539.9 2482.3,1515.7 2483.8,1491.5 
			2482.2,1467.3 2483.6,1443.2 2482.9,1419 2482.5,1394.8 2482.9,1370.6 2483.3,1346.5 2482.8,1322.3 2482.7,1298.1 2482.4,1274 
			2483.9,1249.8 2482.7,1225.6 2482.7,1201.4 2482.4,1177.2 2483.9,1153.1 2483.4,1128.9 2483.4,1103.8 2472.5,1125.5 
			2462.9,1146.7 2453.1,1167.9 2443.2,1188.9 2432.9,1209.8 2422,1230.4 2411.5,1251.3 2402.7,1272.9 2392,1293.6 2382.1,1314.7 
			2372.3,1335.8 2362,1356.8 2352.1,1377.8 2341.6,1399.1 2329.2,1377.9 2317.4,1356.9 2305.3,1336.1 2293.6,1315 2280.8,1294.5 
			2270.1,1272.9 2257.6,1252.8 2245.6,1272.9 2235.2,1294.3 2223.3,1314.9 2213.1,1336.4 2202.4,1357.6 2191.3,1378.7 
			2179.2,1399.1 2168.1,1420.2 2156.4,1440.9 2145.1,1461.8 2134.2,1482.9 2123.2,1504 2112.2,1525.1 2100.5,1545.8 2090.3,1567.4 
			2078.1,1587.8 2068.6,1609.7 2056.6,1630.7 2036.7,1613.6 2016.1,1597.8 1996.9,1580.4 1976.8,1564 1956.1,1548.4 1936,1531.9 
			1922.9,1551.8 1908.5,1570.8 1894.2,1589.9 1881.7,1610.2 1867.4,1629.2 1853.2,1648.3 1840.1,1668.1 1825.3,1686.8 
			1811.7,1706.4 1798.5,1726.1 1777.5,1717.7 1757.4,1707 1736.5,1698.2 1716.1,1688 1695.2,1679.2 1674.5,1670.9 1655.9,1686.4 
			1636.7,1701.9 1618,1718 1598.5,1733.2 1579.8,1749.3 1560.9,1765.2 		"/>
	</g>
	<g>
		<polyline class="st7" points="1605.8,764.6 1627.8,755.6 1651.3,751.7 1675,749.4 1698.8,748.3 1722.5,746.3 1746,742.6 
			1768.3,734.1 1788.2,720.9 1806.4,705.6 1821.8,687.5 1837.3,669.3 1848.5,648.3 		"/>
	</g>
	<pattern  id="SVGID_5_" xlink:href="#_x36__dpi_20_x25_" patternTransform="matrix(1 0 0 1 201.8787 -196.0615)">
	</pattern>
	<path class="st13" d="M1746.9,425.6c0,0-78.9,333.8,21.6,325.3c100.5-8.5,202.5-212.5,202.5-212.5l-135.6,73.5"/>
	<path class="st7" d="M1363.3,1333.8c14,2.7,28.2,4.4,42.4,6c14.2,1.6,28.4,3.2,42.6,4.9"/>
	<path class="st7" d="M2116.2,697.8c25.3-2.6,50.6-4.2,76-4.7"/>
	<path class="st7" d="M1401.6,1340.8c47.9-89,95.8-177.9,143.6-266.9c2.9-5.3,5.8-10.7,10.2-14.9c4.5-4.2,10.7-7.4,12.5-13.3
		c1.6-5.4-1-11.2-0.7-16.8c0.3-4.7,2.7-9.1,5-13.2c16.4-30,29.2-61.8,41.9-93.5c4.5-11.1,8.9-22.2,13.4-33.3
		c7.5-18.6,15-37.3,19.8-56.7c3.4-13.6,12.8-67.4,14.8-81.2"/>
	<path class="st7" d="M1645.6,434.2c16.3,17.1,22.9,28,33.2,40.8"/>
	<path class="st7" d="M1795,332.7c22.2,6.6,45.6,9.4,68.7,8.3"/>
	<path class="st14" d="M1883.3,192.4c8-11,7.7-26.9,0.4-38.4c-7.3-11.4-21-18.2-34.5-18.4c-5-0.1-10.2,0.7-15.1-0.6
		c-4.2-1-7.9-3.4-11.7-5.3c-11.5-6-25.2-8.6-37.5-4.8s-22.7,15.1-23.2,28c-5.8-2.5-12.3,1.7-16.4,6.5c-4.7,5.5-8.1,12.3-8,19.5
		c0.1,6.7,3.2,13.4,1.5,19.8c-1,4-3.8,7.3-6.4,10.5c-4.5,5.5-9,11.3-11.6,18s-2.8,14.6,1,20.7c3.7,6.1,12.1,9.6,18.5,6.4
		c-2.6,5.7-1.6,12.6,1.5,18s8.2,9.5,13.8,12.3c6.7,3.4,14.6,5.1,21.6,2.5c2.8-1,5.4-2.7,8.4-3.1c1.7-0.2,3.5,0,5.2-0.2
		c6.6-0.8,11.1-7,13.4-13.2c2-5.3,3-9.3,3-15c-5.7-1.3-9.6-23.9-1.9-31.6c3.3-3.3,7.4-4.1,11.2-1.2c2.7,2.1,8.1,8.4,7.2,21.4
		c3.3,1.4,6.7,2.7,10,4.1c1.2,0.5,2.5,1,3.8,0.8c1.4-0.3,2.5-1.4,3.3-2.4c6.2-7.7,7.8-18.1,12.5-26.8c6.7-12.5,19-20.7,30.9-28.4"/>
	<g>
		<polygon class="st11" points="2479.9,772.7 2461.9,755.2 2442.2,739.3 2422.9,722.9 2404.3,705.7 2385.7,689.2 2385.4,715.9 
			2384.9,742.4 2361.5,743 2337.6,743.7 2313.7,743.8 2289.7,742.8 2265.8,742.9 2241.9,742.8 2217.9,742.4 2194,743.1 2170,742.7 
			2146.1,743.5 2122.2,743.1 2098.2,742.4 2074.5,743.2 2074.3,766.8 2074.1,790.7 2074.3,814.6 2074.4,838.5 2074.6,862.4 
			2074.1,886.3 2075,910.2 2073.9,934.1 2074.5,957.9 2074.4,981.8 2074.6,1005.7 2074.5,1029.6 2075.2,1053.5 2074.5,1077.4 
			2075.3,1101.3 2073.8,1124.8 2050.7,1124.8 2027.2,1125.8 2003.6,1125.8 1980.1,1125.2 1956.5,1126.1 1933,1124.4 1909.4,1126.1 
			1885.9,1125.2 1862.3,1126 1838.8,1125.3 1815.2,1125.5 1791.6,1125.3 1768.1,1124.5 1744.8,1125.5 1745.5,1148.2 1744.9,1171.3 
			1744,1194.3 1743.7,1217.4 1745.1,1240.5 1745.3,1263.5 1744.4,1286.6 1745.2,1309.6 1745.5,1332.7 1744.6,1355.7 1745,1378.8 
			1744.5,1401.8 1720,1402.5 1695.4,1401.3 1670.8,1402.8 1646.2,1402.3 1621.7,1402.8 1597.1,1401.3 1572.5,1401.7 1548,1401.1 
			1523.4,1402.1 1498.8,1402.5 1474.2,1401.7 1449.7,1401.8 1425.1,1401.4 1400.5,1402 1376,1401.3 1351.4,1401.3 1326.8,1402.2 
			1302.2,1402.1 1277.6,1401 1253.4,1402.2 1253.8,1425.3 1252.8,1448.7 1252.4,1472.1 1253.1,1495.5 1253.5,1518.9 1252.5,1542.3 
			1253.5,1565.7 1253.5,1589.1 1252.4,1612.5 1253.8,1635.9 1252.2,1659.3 1253.6,1682.7 1252.3,1706.1 1253.1,1729.6 
			1229.4,1729.4 1205.7,1728.8 1182,1729.6 1158.3,1729.4 1134.6,1730.4 1110.9,1728.9 1087.3,1730.3 1063.6,1730 1039.9,1728.6 
			1016.2,1729.7 992.5,1729.1 968.8,1729.2 945.7,1729.9 946,1759.1 945.1,1788.7 969.6,1789.1 994,1789.2 1018.5,1788.1 
			1043,1788.8 1067.5,1788.7 1091.9,1788.3 1116.4,1788.7 1140.9,1788.3 1165.4,1789.2 1189.8,1789.6 1214.3,1789.5 1238.8,1788.2 
			1263.3,1788.7 1287.7,1789.5 1311.7,1788.1 1311.5,1765.2 1312.9,1741.8 1312.8,1718.4 1311.3,1695 1313,1671.6 1311.9,1648.2 
			1311.9,1624.8 1313,1601.4 1312.9,1578 1312.8,1554.6 1312.7,1531.2 1311.5,1507.8 1311.5,1484.4 1312.1,1460.9 1336.8,1461.6 
			1361.4,1460.5 1385.9,1462 1410.5,1461.8 1435.1,1460.6 1459.6,1460.3 1484.2,1462 1508.8,1462 1533.4,1460 1557.9,1461.3 
			1582.5,1461.2 1607.1,1462 1631.6,1461 1656.2,1460.5 1680.8,1460.3 1705.4,1460.5 1729.9,1461.7 1754.5,1461.1 1779.1,1460.6 
			1803.9,1461.2 1803.3,1438 1804.3,1414.9 1802.8,1391.9 1802.7,1368.8 1803.9,1345.7 1803.9,1322.7 1804,1299.6 1803,1276.6 
			1803,1253.5 1803.5,1230.5 1803.6,1207.4 1804,1184.7 1827.2,1183.7 1850.8,1185.1 1874.3,1184.1 1897.9,1185.1 1921.4,1185.1 
			1945,1183.6 1968.5,1183.8 1992.1,1185.2 2015.7,1184.2 2039.2,1183.6 2062.8,1183.5 2086.3,1184.1 2109.9,1183.8 2133.3,1184.2 
			2133.3,1160.5 2134,1136.6 2132.8,1112.7 2132.8,1088.8 2133.1,1064.9 2134.2,1041 2132.9,1017.1 2133.1,993.2 2134.4,969.3 
			2133.4,945.5 2134.3,921.6 2132.7,897.7 2133.5,873.8 2132.9,849.9 2133.8,826 2134,802.7 2156.3,801.9 2179.3,802.3 
			2202.2,802.8 2225.1,803.1 2248,801.3 2270.9,802.8 2293.8,801.8 2316.7,801.7 2339.6,802 2362.6,801.3 2385.8,801.8 
			2384.7,829.3 2385.5,856.5 2404.4,839.7 2423.9,823.6 2442.7,806.6 2461.3,789.5 		"/>
		<polygon class="st7" points="2479.9,772.7 2461.9,755.2 2442.2,739.3 2422.9,722.9 2404.3,705.7 2385.7,689.2 2385.4,715.9 
			2384.9,742.4 2361.5,743 2337.6,743.7 2313.7,743.8 2289.7,742.8 2265.8,742.9 2241.9,742.8 2217.9,742.4 2194,743.1 2170,742.7 
			2146.1,743.5 2122.2,743.1 2098.2,742.4 2074.5,743.2 2074.3,766.8 2074.1,790.7 2074.3,814.6 2074.4,838.5 2074.6,862.4 
			2074.1,886.3 2075,910.2 2073.9,934.1 2074.5,957.9 2074.4,981.8 2074.6,1005.7 2074.5,1029.6 2075.2,1053.5 2074.5,1077.4 
			2075.3,1101.3 2073.8,1124.8 2050.7,1124.8 2027.2,1125.8 2003.6,1125.8 1980.1,1125.2 1956.5,1126.1 1933,1124.4 1909.4,1126.1 
			1885.9,1125.2 1862.3,1126 1838.8,1125.3 1815.2,1125.5 1791.6,1125.3 1768.1,1124.5 1744.8,1125.5 1745.5,1148.2 1744.9,1171.3 
			1744,1194.3 1743.7,1217.4 1745.1,1240.5 1745.3,1263.5 1744.4,1286.6 1745.2,1309.6 1745.5,1332.7 1744.6,1355.7 1745,1378.8 
			1744.5,1401.8 1720,1402.5 1695.4,1401.3 1670.8,1402.8 1646.2,1402.3 1621.7,1402.8 1597.1,1401.3 1572.5,1401.7 1548,1401.1 
			1523.4,1402.1 1498.8,1402.5 1474.2,1401.7 1449.7,1401.8 1425.1,1401.4 1400.5,1402 1376,1401.3 1351.4,1401.3 1326.8,1402.2 
			1302.2,1402.1 1277.6,1401 1253.4,1402.2 1253.8,1425.3 1252.8,1448.7 1252.4,1472.1 1253.1,1495.5 1253.5,1518.9 1252.5,1542.3 
			1253.5,1565.7 1253.5,1589.1 1252.4,1612.5 1253.8,1635.9 1252.2,1659.3 1253.6,1682.7 1252.3,1706.1 1253.1,1729.6 
			1229.4,1729.4 1205.7,1728.8 1182,1729.6 1158.3,1729.4 1134.6,1730.4 1110.9,1728.9 1087.3,1730.3 1063.6,1730 1039.9,1728.6 
			1016.2,1729.7 992.5,1729.1 968.8,1729.2 945.7,1729.9 946,1759.1 945.1,1788.7 969.6,1789.1 994,1789.2 1018.5,1788.1 
			1043,1788.8 1067.5,1788.7 1091.9,1788.3 1116.4,1788.7 1140.9,1788.3 1165.4,1789.2 1189.8,1789.6 1214.3,1789.5 1238.8,1788.2 
			1263.3,1788.7 1287.7,1789.5 1311.7,1788.1 1311.5,1765.2 1312.9,1741.8 1312.8,1718.4 1311.3,1695 1313,1671.6 1311.9,1648.2 
			1311.9,1624.8 1313,1601.4 1312.9,1578 1312.8,1554.6 1312.7,1531.2 1311.5,1507.8 1311.5,1484.4 1312.1,1460.9 1336.8,1461.6 
			1361.4,1460.5 1385.9,1462 1410.5,1461.8 1435.1,1460.6 1459.6,1460.3 1484.2,1462 1508.8,1462 1533.4,1460 1557.9,1461.3 
			1582.5,1461.2 1607.1,1462 1631.6,1461 1656.2,1460.5 1680.8,1460.3 1705.4,1460.5 1729.9,1461.7 1754.5,1461.1 1779.1,1460.6 
			1803.9,1461.2 1803.3,1438 1804.3,1414.9 1802.8,1391.9 1802.7,1368.8 1803.9,1345.7 1803.9,1322.7 1804,1299.6 1803,1276.6 
			1803,1253.5 1803.5,1230.5 1803.6,1207.4 1804,1184.7 1827.2,1183.7 1850.8,1185.1 1874.3,1184.1 1897.9,1185.1 1921.4,1185.1 
			1945,1183.6 1968.5,1183.8 1992.1,1185.2 2015.7,1184.2 2039.2,1183.6 2062.8,1183.5 2086.3,1184.1 2109.9,1183.8 2133.3,1184.2 
			2133.3,1160.5 2134,1136.6 2132.8,1112.7 2132.8,1088.8 2133.1,1064.9 2134.2,1041 2132.9,1017.1 2133.1,993.2 2134.4,969.3 
			2133.4,945.5 2134.3,921.6 2132.7,897.7 2133.5,873.8 2132.9,849.9 2133.8,826 2134,802.7 2156.3,801.9 2179.3,802.3 
			2202.2,802.8 2225.1,803.1 2248,801.3 2270.9,802.8 2293.8,801.8 2316.7,801.7 2339.6,802 2362.6,801.3 2385.8,801.8 
			2384.7,829.3 2385.5,856.5 2404.4,839.7 2423.9,823.6 2442.7,806.6 2461.3,789.5 		"/>
	</g>
	<g>
		<polygon class="st7" points="2414,1451.7 2389.7,1451.4 2365.9,1451.2 2342.1,1452.1 2318.3,1450.4 2294.5,1450.4 2270.8,1451.5 
			2247,1450.7 2223.2,1451.7 2199.4,1450.4 2175.6,1451.5 2151.8,1451.6 2128,1451.4 2104.2,1451.2 2080.5,1451.1 2056.7,1452.1 
			2032.9,1450.8 2009.1,1450.5 1985.3,1452 1961.5,1451.4 1937.3,1451.6 1938,1427.4 1938.5,1403.6 1938.1,1379.8 1937,1356 
			1938.5,1332.2 1937.7,1308.5 1937.4,1284.7 1937,1260.9 1937.6,1237.1 1936.8,1213.3 1936.8,1189.5 1937.3,1165.7 1938.2,1141.9 
			1937.1,1118.2 1937,1094.4 1938.2,1070.6 1937.4,1046.8 1937.6,1023 1937.7,999.2 1937.1,974.7 1961.5,974.9 1985.3,975.4 
			2009.1,976 2032.8,976 2056.6,975.7 2080.4,975.6 2104.2,975.6 2128,976.2 2151.8,975.3 2175.6,975.4 2199.4,974.8 2223.1,974.5 
			2246.9,976.4 2270.7,974.7 2294.5,975.4 2318.3,975.8 2342.1,974.7 2365.9,975.8 2389.7,975.4 2412.8,976.1 2413.3,999.2 
			2414.4,1023 2412.7,1046.8 2414.4,1070.5 2412.5,1094.3 2412.5,1118.1 2414.2,1141.9 2413.8,1165.7 2414,1189.5 2414.4,1213.3 
			2413.9,1237.1 2413.2,1260.8 2413,1284.6 2413.2,1308.4 2412.9,1332.2 2412.8,1356 2413,1379.8 2412.6,1403.6 2413.3,1427.4 		"/>
	</g>
	<g>
		
			<pattern  id="SVGID_6_" xlink:href="#_x36__lpi_10_x25_" patternTransform="matrix(0.7071 -0.7071 0.7071 0.7071 2328.3047 -8265.8613)">
		</pattern>
		<polygon class="st15" points="2438.4,1475.8 2414.6,1474.9 2390.8,1474.8 2367,1474.9 2343.2,1476.1 2319.5,1475.4 2295.7,1475.3 
			2271.9,1476.6 2248.1,1476.3 2224.3,1475.2 2200.5,1476.1 2176.7,1475.8 2152.9,1475.3 2129.2,1476 2105.4,1476.2 2081.6,1474.8 
			2057.8,1475.5 2034,1475 2010.2,1475.7 1986.4,1476.1 1961.9,1476.5 1962,1452 1962.8,1428.2 1961.9,1404.4 1962.1,1380.6 
			1963.4,1356.8 1963.1,1333 1962.8,1309.2 1962.3,1285.5 1961.8,1261.7 1963.5,1237.9 1963.2,1214.1 1962.6,1190.3 1962.9,1166.5 
			1963.1,1142.7 1962.8,1118.9 1963.3,1095.2 1962.3,1071.4 1962.2,1047.6 1962.5,1023.8 1962,999.4 1986.4,1000.5 2010.2,1000.7 
			2034,999.7 2057.8,999.2 2081.5,999.1 2105.3,1000.7 2129.1,1000.2 2152.9,1000.4 2176.7,999.9 2200.5,999.8 2224.3,999.4 
			2248.1,1001 2271.8,999.2 2295.6,999.2 2319.4,999.5 2343.2,999.4 2367,999.3 2390.8,1000.2 2414.6,999.7 2439,999.4 
			2438.3,1023.8 2438.3,1047.6 2439.2,1071.3 2437.8,1095.1 2437.7,1118.9 2438.1,1142.7 2439.3,1166.5 2439.1,1190.3 
			2437.7,1214.1 2438.9,1237.9 2437.5,1261.6 2439.3,1285.4 2438.4,1309.2 2438.9,1333 2438.1,1356.8 2439,1380.6 2438.4,1404.4 
			2438.8,1428.2 2437.9,1452 		"/>
		<polygon class="st16" points="2438.4,1475.8 2414.6,1474.9 2390.8,1474.8 2367,1474.9 2343.2,1476.1 2319.5,1475.4 2295.7,1475.3 
			2271.9,1476.6 2248.1,1476.3 2224.3,1475.2 2200.5,1476.1 2176.7,1475.8 2152.9,1475.3 2129.2,1476 2105.4,1476.2 2081.6,1474.8 
			2057.8,1475.5 2034,1475 2010.2,1475.7 1986.4,1476.1 1961.9,1476.5 1962,1452 1962.8,1428.2 1961.9,1404.4 1962.1,1380.6 
			1963.4,1356.8 1963.1,1333 1962.8,1309.2 1962.3,1285.5 1961.8,1261.7 1963.5,1237.9 1963.2,1214.1 1962.6,1190.3 1962.9,1166.5 
			1963.1,1142.7 1962.8,1118.9 1963.3,1095.2 1962.3,1071.4 1962.2,1047.6 1962.5,1023.8 1962,999.4 1986.4,1000.5 2010.2,1000.7 
			2034,999.7 2057.8,999.2 2081.5,999.1 2105.3,1000.7 2129.1,1000.2 2152.9,1000.4 2176.7,999.9 2200.5,999.8 2224.3,999.4 
			2248.1,1001 2271.8,999.2 2295.6,999.2 2319.4,999.5 2343.2,999.4 2367,999.3 2390.8,1000.2 2414.6,999.7 2439,999.4 
			2438.3,1023.8 2438.3,1047.6 2439.2,1071.3 2437.8,1095.1 2437.7,1118.9 2438.1,1142.7 2439.3,1166.5 2439.1,1190.3 
			2437.7,1214.1 2438.9,1237.9 2437.5,1261.6 2439.3,1285.4 2438.4,1309.2 2438.9,1333 2438.1,1356.8 2439,1380.6 2438.4,1404.4 
			2438.8,1428.2 2437.9,1452 		"/>
	</g>
	<g>
		<polyline class="st7" points="1410.9,826.9 1423,808.4 1439.1,793.2 1459.9,785.6 1482,784.8 1502.5,793 1520,806.4 1530.3,827.3 
			1532.8,850.2 1531.6,873.4 		"/>
	</g>
	<g>
		<polyline class="st11" points="1745.2,407.9 1743.6,430.8 1745.8,453.6 1750.1,476 1754.7,498.4 1759.6,520.8 1766.8,542.5 
			1773.6,564.3 1779.8,586.4 1788.7,607.3 1800.6,626.6 1817.3,641.6 1838.5,647.8 1861,646.1 1881.5,636.3 1900.2,623.5 
			1918.7,609.2 1936,593.4 1951.8,576.1 1967.2,558.5 1980.6,539.3 1994,520.2 2007.1,500.8 2018.7,480.5 2031.6,461 2043.1,440.6 
			2053.3,419.4 2071.5,406.5 2086.2,390 2096.6,370.3 2092.6,348.5 2073.3,331.9 2047.9,330.3 2026.9,343.6 2006.4,360.3 
			2006.4,389.5 1995.2,410 1982,429.8 1968.2,449.1 1954.3,468.4 1940,487.4 1924.2,505.2 1908.9,523.3 1892.7,540.8 1874.5,556.2 
			1855.8,570.8 1843.6,553.1 1840.5,530.8 1837.8,508.6 1835.4,486.2 1832.7,463.9 1832,441.4 1835.1,419.3 1835,397.1 
			1834.6,374.8 1822.8,356.5 1803.2,347.5 		"/>
		<polyline class="st7" points="1745.2,407.9 1743.6,430.8 1745.8,453.6 1750.1,476 1754.7,498.4 1759.6,520.8 1766.8,542.5 
			1773.6,564.3 1779.8,586.4 1788.7,607.3 1800.6,626.6 1817.3,641.6 1838.5,647.8 1861,646.1 1881.5,636.3 1900.2,623.5 
			1918.7,609.2 1936,593.4 1951.8,576.1 1967.2,558.5 1980.6,539.3 1994,520.2 2007.1,500.8 2018.7,480.5 2031.6,461 2043.1,440.6 
			2053.3,419.4 2071.5,406.5 2086.2,390 2096.6,370.3 2092.6,348.5 2073.3,331.9 2047.9,330.3 2026.9,343.6 2006.4,360.3 
			2006.4,389.5 1995.2,410 1982,429.8 1968.2,449.1 1954.3,468.4 1940,487.4 1924.2,505.2 1908.9,523.3 1892.7,540.8 1874.5,556.2 
			1855.8,570.8 1843.6,553.1 1840.5,530.8 1837.8,508.6 1835.4,486.2 1832.7,463.9 1832,441.4 1835.1,419.3 1835,397.1 
			1834.6,374.8 1822.8,356.5 1803.2,347.5 		"/>
	</g>
	<path class="st7" d="M1762.8,527.2c19-17.4,48.2-27.7,72.7-35.6"/>
</g>
<g id="Layer_1" class="st17">
	<g class="st18">
		<polygon class="st7" points="1080.8,1588.8 1066.3,1601.1 1047.9,1605.6 1029.6,1600.9 1015,1588.8 1030.1,1577.5 1047.9,1571.4 
			1066.2,1576.6 		"/>
	</g>
	<g class="st18">
		<polygon class="st7" points="996.9,1045.7 981.8,1058 963.5,1061.5 945.6,1056.9 931.6,1045.7 945.6,1034.3 963.5,1029.6 
			981.5,1034 		"/>
	</g>
	<g class="st18">
		<polygon class="st7" points="920,198.5 905.6,209.9 887.7,215.2 869.5,210.5 854.4,198.5 869.5,186.6 887.7,182.8 905.8,186.7 		
			"/>
	</g>
	<g class="st18">
		<polygon class="st7" points="1295,1383.4 1280.4,1394.1 1262.9,1400.9 1245.1,1394.6 1229.7,1383.4 1244.4,1371 1262.9,1365.8 
			1281.2,1371.2 		"/>
	</g>
	<g class="st18">
		<polygon class="st7" points="2591.1,1343.6 2576.4,1355 2558.5,1360.6 2540.2,1355.7 2526.4,1343.6 2540.3,1331.6 2558.5,1326.5 
			2577,1331.2 		"/>
	</g>
	<g class="st18">
		<polygon class="st7" points="1130.8,28.1 1114.8,38.9 1097.2,43.9 1079.2,39.7 1063.7,28.1 1079.5,17.2 1097.2,10.5 1115.1,16.6 
					"/>
	</g>
	<g class="st18">
		<polygon class="st7" points="1328.4,98.3 1313.9,110.3 1295.7,115.9 1277.7,109.8 1263.1,98.3 1277.5,86.3 1295.7,82.3 
			1313.7,86.8 		"/>
	</g>
	<g class="st18">
		<polygon class="st7" points="1677.6,154.7 1662.9,165.7 1645.2,171.2 1627.2,166.4 1612,154.7 1626.8,142.4 1645.2,138.3 
			1663.2,143.2 		"/>
	</g>
	<g class="st18">
		<polygon class="st7" points="1874.2,61.9 1860.3,73.8 1842.1,78.9 1824.5,72.8 1808.9,61.9 1824.4,50.9 1842.1,45.1 1859.6,51.2 
					"/>
	</g>
	<g class="st18">
		<polygon class="st7" points="2557.9,61.9 2543.8,73.6 2525.7,78 2507.9,73.2 2492.5,61.9 2508,51 2525.7,44.9 2544.1,49.6 		"/>
	</g>
	<g class="st18">
		<polygon class="st7" points="893.1,608.3 878.7,620.1 860.5,625.5 842.1,620.6 827.1,608.3 842.7,596.9 860.5,591.2 878.9,595.9 
					"/>
	</g>
	<g class="st18">
		<polygon class="st7" points="2695.2,634.5 2680.6,646.7 2662.3,651.8 2644.7,645.3 2629.5,634.5 2644,622.3 2662.3,617.4 
			2680.3,622.9 		"/>
	</g>
	<g class="st18">
		<polygon class="st7" points="2657.8,819.2 2641.8,830.2 2624.1,835.8 2605.8,831.5 2590.5,819.2 2605.8,807 2624.1,801.6 
			2642.4,807.2 		"/>
	</g>
	<g class="st18">
		<polygon class="st7" points="953.7,1326.9 938.5,1338.4 920.5,1344 902.9,1337.6 887,1326.9 902.4,1315.1 920.5,1309.7 
			938.9,1314.6 		"/>
	</g>
	<g class="st18">
		<pattern  id="SVGID_7_" xlink:href="#_x36__dpi_30_x25_" patternTransform="matrix(1 0 0 1 216.9175 -263.0929)">
		</pattern>
		<polygon class="st19" points="2520.3,1320.6 2496.6,1320.5 2472.8,1321.2 2449,1321 2425.2,1321.1 2401.4,1320 2377.6,1320.7 
			2353.8,1320.2 2330,1320.7 2306.2,1321 2282.4,1320 2258.6,1321.6 2234.8,1320.2 2211,1320.8 2187.2,1320.5 2163.4,1320.9 
			2139.6,1321.2 2115.8,1321.1 2092,1320.8 2068.2,1320.8 2044.4,1321 2020.6,1321.6 1996.8,1320.9 1973,1321.3 1949.2,1320.7 
			1925.4,1319.9 1901.6,1321.3 1877.8,1320.3 1854,1320.4 1830.2,1320.1 1806.4,1321.2 1782.6,1320.1 1758.8,1321.6 1735,1319.8 
			1711.2,1320.9 1687.4,1320.6 1663.6,1321.4 1639.8,1319.9 1616,1321.1 1592.2,1320 1568.4,1320.9 1544.6,1321 1520.8,1320.2 
			1497,1321.2 1473.2,1321 1449.4,1320.9 1425.6,1319.8 1401.8,1320.8 1377.9,1320.1 1354.1,1320.1 1330.3,1320 1306.5,1321 
			1282.7,1319.9 1258.9,1319.9 1235.1,1320.7 1211.3,1321 1187.5,1320.3 1163.7,1321 1139.9,1319.8 1116.1,1321.1 1092.1,1320.9 
			1093.1,1296.5 1091.6,1272.3 1092.9,1248 1092.2,1223.8 1093.1,1199.6 1092.2,1175.3 1093.2,1151.1 1093.1,1126.8 1091.8,1102.6 
			1092.5,1078.4 1091.3,1054.1 1092.7,1029.9 1092.2,1005.7 1092,981.4 1091.5,957.2 1093,932.9 1092.2,908.7 1092.7,884.5 
			1092.1,860.2 1092.6,836 1091.8,811.8 1091.7,787.5 1092.5,763.3 1092.1,739 1092.4,714.8 1092.8,690.6 1093.1,666.3 
			1091.7,642.1 1093.1,617.8 1092.8,593.6 1092.4,569.4 1092.8,545.1 1092.4,520.9 1091.5,496.6 1093.3,472.4 1091.4,448.2 
			1092,423.9 1092.4,399.7 1092.3,375.4 1092.2,351.2 1093,326.9 1091.4,302.7 1092.4,278.5 1092.4,254.2 1092.3,230 1116.1,230.9 
			1139.9,229.1 1163.7,229.8 1187.5,229.3 1211.3,229.3 1235.1,229.3 1258.9,230.3 1282.7,229.4 1306.5,229 1330.3,230.8 
			1354.1,230.9 1377.9,229.5 1401.7,230.9 1425.5,229 1449.3,229.6 1473.1,230 1496.9,230.7 1520.7,229.7 1544.5,230.5 
			1568.3,229.6 1592.1,229.2 1615.9,229.8 1639.7,229.4 1663.5,229.6 1687.3,229.9 1711.1,230.8 1734.9,229.5 1758.7,229.4 
			1782.5,230.2 1806.3,229.9 1830.1,229.5 1853.9,230 1877.7,230.8 1901.5,230 1925.3,230.5 1949.1,229 1972.9,229.1 1996.7,229 
			2020.5,230.3 2044.3,229.7 2068.1,230.1 2091.9,229.2 2115.7,229.7 2139.5,230.9 2163.3,229.5 2187.2,229.6 2211,229.5 
			2234.8,229.6 2258.6,229.9 2282.4,230.2 2306.2,230.7 2330,229.7 2353.8,229.8 2377.6,230.4 2401.4,229.8 2425.2,229.3 
			2449,229.1 2472.8,230.8 2496.6,229.8 2520.2,230.2 2520.2,254.2 2521.4,278.4 2521.2,302.7 2519.9,326.9 2521,351.1 
			2519.8,375.4 2521,399.6 2521.2,423.9 2520.8,448.1 2519.7,472.3 2520,496.6 2520.2,520.8 2521.3,545 2519.6,569.3 2519.5,593.5 
			2520.9,617.8 2521.1,642 2519.6,666.2 2520.5,690.5 2520.2,714.7 2520.3,738.9 2521.2,763.2 2521,787.4 2520,811.7 2519.8,835.9 
			2519.5,860.1 2521.1,884.4 2520.6,908.6 2519.9,932.9 2521,957.1 2520.4,981.3 2520.9,1005.6 2520.1,1029.8 2521.3,1054.1 
			2520.2,1078.3 2520.2,1102.5 2519.8,1126.8 2520.8,1151 2520,1175.3 2520.9,1199.5 2520.6,1223.8 2519.5,1248 2519.6,1272.2 
			2521.2,1296.5 		"/>
	</g>
	<g class="st18">
		<polygon class="st11" points="2558.7,1283.4 2534.4,1283.9 2510.3,1282.2 2486.2,1283.2 2462.1,1283.7 2438,1283.9 2413.9,1283.3 
			2389.8,1283.3 2365.7,1284.2 2341.6,1283 2317.4,1283.2 2293.3,1282.9 2269.2,1282.5 2245.1,1283.6 2221,1283.9 2196.9,1282.6 
			2172.8,1282.8 2148.7,1283.2 2124.6,1283.3 2100.5,1282.3 2076.4,1283.6 2052.3,1282.7 2028.2,1284.1 2004.1,1283.1 
			1979.9,1283.5 1955.8,1284 1931.7,1282.9 1907.6,1282.8 1883.5,1282.6 1859.4,1284 1835.3,1282.8 1811.2,1282.8 1787.1,1282.8 
			1763,1282.6 1738.9,1282.7 1714.8,1283.6 1690.7,1283.3 1666.6,1283.7 1642.5,1283.2 1618.4,1283 1594.2,1284.2 1570.1,1283.2 
			1546,1282.3 1521.9,1282.3 1497.8,1282.3 1473.7,1283.3 1449.6,1282.7 1425.5,1282.4 1401.4,1282.4 1377.3,1283.1 1353.1,1283.1 
			1329,1283.7 1304.9,1282.8 1280.8,1283.8 1256.7,1283.6 1232.6,1282.6 1208.5,1282.7 1184.4,1282.7 1160.2,1282.7 1136.5,1282.8 
			1136.1,1259.1 1135.9,1235 1136.1,1210.9 1136.6,1186.8 1135.5,1162.7 1135.6,1138.6 1136.6,1114.5 1136.1,1090.4 1137,1066.3 
			1136.6,1042.2 1136,1018.1 1136.5,994 1135.6,969.9 1137,945.8 1135.4,921.7 1137,897.6 1135.5,873.5 1136.5,849.4 1136.9,825.3 
			1135.8,801.2 1136.7,777.1 1135.8,752.9 1137,728.8 1136.2,704.7 1135.2,680.6 1136.7,656.5 1135.2,632.4 1135.4,608.3 
			1135.7,584.2 1137,560.1 1136.7,536 1136.1,511.9 1136.1,487.8 1136.9,463.7 1135.5,439.6 1136.1,415.5 1135.2,391.4 
			1135.6,367.3 1136.6,343.2 1136.6,319 1136.2,294.9 1136.6,270.8 1136.1,246.7 1135.8,222.6 1136.2,198.6 1160.2,198.3 
			1184.3,199.3 1208.4,198.9 1232.6,198 1256.7,199.2 1280.8,197.9 1304.9,199.3 1329,198.7 1353.1,199.3 1377.2,197.9 
			1401.3,197.5 1425.4,199.1 1449.5,198.6 1473.6,197.7 1497.7,198.4 1521.8,198.6 1545.9,198.9 1570,197.6 1594.2,199.3 
			1618.3,199.3 1642.4,199.2 1666.5,198.8 1690.6,198.7 1714.7,199.1 1738.8,199.4 1762.9,198.1 1787,199.1 1811.1,198.7 
			1835.2,198 1859.3,197.9 1883.4,198.9 1907.5,197.8 1931.6,198.8 1955.7,199.4 1979.9,198.1 2004,199 2028.1,198.2 2052.2,198.9 
			2076.3,197.7 2100.4,199.4 2124.5,198.2 2148.6,197.5 2172.7,199.2 2196.8,198 2220.9,198 2245.1,199 2269.2,197.7 2293.3,197.6 
			2317.4,198.4 2341.5,198.8 2365.6,197.5 2389.7,198.4 2413.8,197.5 2437.9,197.8 2462,197.8 2486.2,199.3 2510.3,198.6 
			2534.4,199.5 2558.9,198.1 2559.2,222.6 2557.8,246.7 2558.4,270.8 2558.7,294.9 2559.3,319 2558.3,343.1 2557.6,367.2 
			2558,391.3 2558.4,415.4 2558.7,439.5 2557.8,463.6 2558.1,487.7 2558.9,511.8 2559.3,535.9 2558,560 2559.3,584.1 2559.3,608.2 
			2558.7,632.3 2558.2,656.4 2557.6,680.5 2558.3,704.6 2558,728.7 2558.2,752.9 2557.7,777 2558.5,801.1 2557.6,825.2 
			2559.1,849.3 2558,873.4 2557.5,897.5 2558.3,921.6 2559.3,945.7 2558.1,969.8 2558,993.9 2557.6,1018 2557.9,1042.1 
			2558.4,1066.2 2558.1,1090.3 2558.5,1114.4 2559.1,1138.5 2559.3,1162.7 2558.9,1186.8 2557.7,1210.9 2558.8,1235 2559.3,1259.1 
					"/>
		<polygon class="st7" points="2558.7,1283.4 2534.4,1283.9 2510.3,1282.2 2486.2,1283.2 2462.1,1283.7 2438,1283.9 2413.9,1283.3 
			2389.8,1283.3 2365.7,1284.2 2341.6,1283 2317.4,1283.2 2293.3,1282.9 2269.2,1282.5 2245.1,1283.6 2221,1283.9 2196.9,1282.6 
			2172.8,1282.8 2148.7,1283.2 2124.6,1283.3 2100.5,1282.3 2076.4,1283.6 2052.3,1282.7 2028.2,1284.1 2004.1,1283.1 
			1979.9,1283.5 1955.8,1284 1931.7,1282.9 1907.6,1282.8 1883.5,1282.6 1859.4,1284 1835.3,1282.8 1811.2,1282.8 1787.1,1282.8 
			1763,1282.6 1738.9,1282.7 1714.8,1283.6 1690.7,1283.3 1666.6,1283.7 1642.5,1283.2 1618.4,1283 1594.2,1284.2 1570.1,1283.2 
			1546,1282.3 1521.9,1282.3 1497.8,1282.3 1473.7,1283.3 1449.6,1282.7 1425.5,1282.4 1401.4,1282.4 1377.3,1283.1 1353.1,1283.1 
			1329,1283.7 1304.9,1282.8 1280.8,1283.8 1256.7,1283.6 1232.6,1282.6 1208.5,1282.7 1184.4,1282.7 1160.2,1282.7 1136.5,1282.8 
			1136.1,1259.1 1135.9,1235 1136.1,1210.9 1136.6,1186.8 1135.5,1162.7 1135.6,1138.6 1136.6,1114.5 1136.1,1090.4 1137,1066.3 
			1136.6,1042.2 1136,1018.1 1136.5,994 1135.6,969.9 1137,945.8 1135.4,921.7 1137,897.6 1135.5,873.5 1136.5,849.4 1136.9,825.3 
			1135.8,801.2 1136.7,777.1 1135.8,752.9 1137,728.8 1136.2,704.7 1135.2,680.6 1136.7,656.5 1135.2,632.4 1135.4,608.3 
			1135.7,584.2 1137,560.1 1136.7,536 1136.1,511.9 1136.1,487.8 1136.9,463.7 1135.5,439.6 1136.1,415.5 1135.2,391.4 
			1135.6,367.3 1136.6,343.2 1136.6,319 1136.2,294.9 1136.6,270.8 1136.1,246.7 1135.8,222.6 1136.2,198.6 1160.2,198.3 
			1184.3,199.3 1208.4,198.9 1232.6,198 1256.7,199.2 1280.8,197.9 1304.9,199.3 1329,198.7 1353.1,199.3 1377.2,197.9 
			1401.3,197.5 1425.4,199.1 1449.5,198.6 1473.6,197.7 1497.7,198.4 1521.8,198.6 1545.9,198.9 1570,197.6 1594.2,199.3 
			1618.3,199.3 1642.4,199.2 1666.5,198.8 1690.6,198.7 1714.7,199.1 1738.8,199.4 1762.9,198.1 1787,199.1 1811.1,198.7 
			1835.2,198 1859.3,197.9 1883.4,198.9 1907.5,197.8 1931.6,198.8 1955.7,199.4 1979.9,198.1 2004,199 2028.1,198.2 2052.2,198.9 
			2076.3,197.7 2100.4,199.4 2124.5,198.2 2148.6,197.5 2172.7,199.2 2196.8,198 2220.9,198 2245.1,199 2269.2,197.7 2293.3,197.6 
			2317.4,198.4 2341.5,198.8 2365.6,197.5 2389.7,198.4 2413.8,197.5 2437.9,197.8 2462,197.8 2486.2,199.3 2510.3,198.6 
			2534.4,199.5 2558.9,198.1 2559.2,222.6 2557.8,246.7 2558.4,270.8 2558.7,294.9 2559.3,319 2558.3,343.1 2557.6,367.2 
			2558,391.3 2558.4,415.4 2558.7,439.5 2557.8,463.6 2558.1,487.7 2558.9,511.8 2559.3,535.9 2558,560 2559.3,584.1 2559.3,608.2 
			2558.7,632.3 2558.2,656.4 2557.6,680.5 2558.3,704.6 2558,728.7 2558.2,752.9 2557.7,777 2558.5,801.1 2557.6,825.2 
			2559.1,849.3 2558,873.4 2557.5,897.5 2558.3,921.6 2559.3,945.7 2558.1,969.8 2558,993.9 2557.6,1018 2557.9,1042.1 
			2558.4,1066.2 2558.1,1090.3 2558.5,1114.4 2559.1,1138.5 2559.3,1162.7 2558.9,1186.8 2557.7,1210.9 2558.8,1235 2559.3,1259.1 
					"/>
	</g>
	<g class="st18">
		<polyline class="st7" points="1135.6,1188.6 1155.3,1174.9 1174.8,1160.8 1194.8,1147.4 1214.7,1134 1235.3,1121.6 1255.9,1109.1 
			1276.1,1096.2 1296.3,1083.3 1316.5,1070.2 1337.3,1058.3 1358.2,1046.2 1379.2,1034.7 1399.9,1022.4 1421.1,1011.2 1441.6,998.6 
			1462.5,986.8 1483.8,975.7 1505,964.4 1526.5,953.7 1548,942.9 1569.7,932.6 1591.2,921.9 1613.2,912.2 1634.9,902 1656.4,891.2 
			1678.6,882.1 1700.1,871.2 1722.7,862.9 1744.7,853.2 1766.6,843.5 1788.6,833.7 1811,825.1 1833.9,817.6 1856.2,808.7 
			1878.5,799.9 1901.1,791.6 1923.6,783.2 1946.9,777 1969.4,768.5 1992,760.6 2015.2,754.1 2038.6,748.3 2061.6,741.4 
			2084.3,733.5 2107.8,728.6 2130.9,721.8 2154.5,717 2177.8,711.4 2201.4,706.9 2224.8,701.3 2248.4,696.9 2272,692 2295.7,688.4 
			2319.2,683.3 2343.2,681 2367,678.2 2390.8,674.9 2414.6,671 2438.5,668.7 2462.5,666.9 2486.6,666.8 2510.5,665.1 2534.5,663.3 
			2558.5,662.2 		"/>
	</g>
	<g class="st18">
		<polyline class="st7" points="1840.3,198.2 1852.3,218.9 1863.7,239.9 1873.4,261.8 1883.8,283.3 1892.9,305.5 1902.4,327.4 
			1912.8,349 1921.5,371.3 1929.8,393.7 1937.2,416.4 1946.3,438.6 1954,461.3 1961.1,484.1 1967.9,507 1975.5,529.7 1982.2,552.7 
			1989.4,575.5 1994.7,598.8 2001.5,621.8 2007.3,645 2014.3,667.9 2019.3,691.3 2025.7,714.3 2030.3,737.8 2035.3,761.2 
			2041.7,784.3 2046.2,807.8 2050.3,831.4 2055.2,854.8 2059.8,878.2 2064.9,901.6 2070,925 2072.8,948.8 2078.1,972.2 
			2081.9,995.8 2084.9,1019.5 2089.4,1043 2092.8,1066.7 2094.7,1090.6 2099.9,1114 2102.3,1137.9 2105.7,1161.5 2107.9,1185.4 
			2111.9,1209 2114.3,1232.8 2116.3,1256.6 2119.4,1280.4 		"/>
	</g>
	<g class="st18">
		<pattern  id="SVGID_8_" xlink:href="#_x36__dpi_20_x25_" patternTransform="matrix(1 0 0 1 136.017 -199.101)">
		</pattern>
		<path class="st20" d="M1451.1,800.5c25.3,37.7,49.7,78,72.3,120.6c137.2-68.5,300.5-138.2,478.1-190.6
			c-30.3-133.2-62.4-239.5-91.6-321.9C1715.1,528.7,1564.6,668.8,1451.1,800.5z"/>
	</g>
	<g class="st18">
		<g>
			<polyline class="st11" points="1983.2,951.7 1978.7,927.9 1968.7,906.1 1949.4,892 1926.4,885.1 1902.2,884.1 1877.9,886.4 
				1867.1,908 1857.7,930.1 1853.2,953.7 1848.3,977.2 1845,1001 1845.6,1025.1 1841.5,1048.2 1834.6,1070.4 1825,1091.7 
				1812.7,1111.7 1797.7,1129.7 1784.7,1148.4 1798.5,1161.8 1819.3,1166.1 1840.3,1169.2 1838.2,1193.1 1837,1217.1 1836.9,1241.1 
				1840.9,1264.7 1846.9,1287.8 1855.4,1310.2 1873.7,1325.3 1896.6,1331.7 1919.4,1335.8 1931.7,1355.3 1933.4,1379.1 1928,1402.4 
				1921.9,1425.5 1912.7,1447.5 1903.6,1468.6 1925.2,1476.9 1947.2,1485.3 1969.1,1493.9 1991.7,1500.7 2013.9,1508.6 
				2036.1,1516.6 2058.2,1524.6 2080.2,1533 2104,1523.1 2128.4,1514.8 2152.6,1506 2176.8,1497.1 2200.4,1486.8 2224.6,1478.3 
				2207,1462 2193.7,1441.7 2182.5,1420.2 2174.4,1397.4 2168.7,1373.7 2167.7,1349.3 2171.1,1325.2 2176.6,1301.6 2183.9,1275.6 
							"/>
			<polyline class="st7" points="1983.2,951.7 1978.7,927.9 1968.7,906.1 1949.4,892 1926.4,885.1 1902.2,884.1 1877.9,886.4 
				1867.1,908 1857.7,930.1 1853.2,953.7 1848.3,977.2 1845,1001 1845.6,1025.1 1841.5,1048.2 1834.6,1070.4 1825,1091.7 
				1812.7,1111.7 1797.7,1129.7 1784.7,1148.4 1798.5,1161.8 1819.3,1166.1 1840.3,1169.2 1838.2,1193.1 1837,1217.1 1836.9,1241.1 
				1840.9,1264.7 1846.9,1287.8 1855.4,1310.2 1873.7,1325.3 1896.6,1331.7 1919.4,1335.8 1931.7,1355.3 1933.4,1379.1 1928,1402.4 
				1921.9,1425.5 1912.7,1447.5 1903.6,1468.6 1925.2,1476.9 1947.2,1485.3 1969.1,1493.9 1991.7,1500.7 2013.9,1508.6 
				2036.1,1516.6 2058.2,1524.6 2080.2,1533 2104,1523.1 2128.4,1514.8 2152.6,1506 2176.8,1497.1 2200.4,1486.8 2224.6,1478.3 
				2207,1462 2193.7,1441.7 2182.5,1420.2 2174.4,1397.4 2168.7,1373.7 2167.7,1349.3 2171.1,1325.2 2176.6,1301.6 2183.9,1275.6 
							"/>
		</g>
		<g>
			<polygon class="st21" points="2038.5,803.2 2014.8,803.5 1991.6,808.2 1968.8,814.8 1946.9,823.7 1926.7,836.1 1907.7,850.1 
				1892.3,867.9 1877.6,886.9 1902.4,894.6 1919.6,913.5 1931.7,936 1942.7,959.1 1958.6,979 1980,993.5 1977.5,1015.5 1973.9,1037 
				1972.2,1058.7 1971,1079.6 1988,1064.2 2008.9,1052.9 2032,1048 2052.6,1060.5 2062.6,1083.6 2060.3,1108.2 2049.5,1130.2 
				2035.6,1150.4 2019.1,1168.6 2002.1,1185.7 2011,1208.2 2024.8,1228.8 2042.5,1246.2 2063.1,1259.9 2085.8,1269.8 2109.7,1276.3 
				2134.4,1277.6 2159,1277.6 2183.7,1275.5 2191.7,1253.7 2201.7,1232.6 2212.2,1211.8 2225.4,1192.5 2235.3,1171.3 2246.9,1151.1 
				2256.7,1130 2264.2,1107.8 2270.2,1085.3 2275.3,1062.6 2280.5,1038.5 2283.2,1014 2280.8,989.5 2279,965.1 2274.3,941 
				2264.7,918.4 2253.8,896.4 2239.3,876.4 2221.8,859.1 2203,843.2 2181.5,831.1 2159.3,820.4 2136,812.4 2111.9,807.4 
				2087.7,802.7 2063.1,802 			"/>
			<polygon class="st7" points="2038.5,803.2 2014.8,803.5 1991.6,808.2 1968.8,814.8 1946.9,823.7 1926.7,836.1 1907.7,850.1 
				1892.3,867.9 1877.6,886.9 1902.4,894.6 1919.6,913.5 1931.7,936 1942.7,959.1 1958.6,979 1980,993.5 1977.5,1015.5 1973.9,1037 
				1972.2,1058.7 1971,1079.6 1988,1064.2 2008.9,1052.9 2032,1048 2052.6,1060.5 2062.6,1083.6 2060.3,1108.2 2049.5,1130.2 
				2035.6,1150.4 2019.1,1168.6 2002.1,1185.7 2011,1208.2 2024.8,1228.8 2042.5,1246.2 2063.1,1259.9 2085.8,1269.8 2109.7,1276.3 
				2134.4,1277.6 2159,1277.6 2183.7,1275.5 2191.7,1253.7 2201.7,1232.6 2212.2,1211.8 2225.4,1192.5 2235.3,1171.3 2246.9,1151.1 
				2256.7,1130 2264.2,1107.8 2270.2,1085.3 2275.3,1062.6 2280.5,1038.5 2283.2,1014 2280.8,989.5 2279,965.1 2274.3,941 
				2264.7,918.4 2253.8,896.4 2239.3,876.4 2221.8,859.1 2203,843.2 2181.5,831.1 2159.3,820.4 2136,812.4 2111.9,807.4 
				2087.7,802.7 2063.1,802 			"/>
		</g>
	</g>
	<g class="st18">
		<polyline class="st7" points="1136,449.2 1155.4,463.5 1173.8,479.2 1192.4,494.6 1210.4,510.8 1228.6,526.6 1246.5,542.8 
			1264.8,558.7 1281.7,575.9 1297.9,593.9 1316,610.1 1332.4,627.8 1348.8,645.6 1364.1,664.3 1379.3,683.1 1395.1,701.4 
			1411.2,719.4 1425.1,739.3 1440.4,758 1454.4,777.7 1467.4,798.1 1481.5,817.8 1494.6,838 1508.3,857.9 1520.9,878.5 
			1532.2,899.9 1544.5,920.7 1556.6,941.7 1568.1,963 1577.4,985.3 1587.7,1007.2 1598.8,1028.7 1608.4,1050.9 1616.9,1073.5 
			1624.2,1096.6 1633.1,1119.1 1640.8,1142 1647.8,1165.1 1653.5,1188.7 1658.9,1212.2 1664.7,1235.7 1669.3,1259.4 1673.6,1283.2 
					"/>
	</g>
	<g class="st18">
		<polyline class="st7" points="1187.8,1283.2 1197.7,1261.5 1206.7,1239.4 1216.4,1217.7 1227.9,1196.8 1237.7,1175 1249.7,1154.4 
			1260.8,1133.2 1272.5,1112.5 1285.7,1092.6 1298.1,1072.3 1310.1,1051.7 1323.1,1031.6 1337,1012.3 1350,992.3 1363.5,972.7 
			1376.4,952.6 1390.7,933.5 1406.1,915.2 1419.4,895.4 1435.2,877.5 1450.3,859.1 1464.4,839.8 1480.4,822 1496.3,804.3 
			1511.4,785.9 1527.8,768.6 1544.3,751.3 1561.2,734.5 1577.6,717.2 1593.7,699.6 1611,683.2 1628.9,667.4 1646.3,651.1 
			1663.6,634.7 1681.9,619.4 1698.9,602.6 1717.2,587.3 1736.5,573.2 1755.2,558.5 1773.2,542.7 1792.4,528.6 1812.2,515.3 
			1830.5,499.8 1850.7,487.2 1870.1,473.4 1890.4,460.8 1910.1,447.3 1930.1,434.5 1950.4,421.9 1971.1,410.1 1991.9,398.3 
			2011.9,385.4 2032.7,373.7 2054.1,363.1 2074.8,351.3 2096.8,342 2118,330.9 2139.1,319.8 2160.8,309.9 2182.8,300.6 
			2204.4,290.5 2227,282.8 2248.7,272.8 2271,264.4 2293.7,257.1 2315.6,247.6 2338.4,240.5 2361,232.8 2383.9,226.1 2406.3,218.1 
			2429.2,211.2 2452.3,205.2 2475,197.8 		"/>
	</g>
	<g class="st18">
		<polygon class="st21" points="1730.3,874 1705.7,872.7 1681.8,872.7 1657.9,873.5 1633.9,873.9 1610,873.9 1586,872.8 
			1562.1,872.8 1538.2,873.6 1514.2,872.6 1490.3,874.2 1466.3,874.3 1442.4,872.4 1418.4,874.4 1394.5,872.7 1370.6,872.7 
			1346.6,874.2 1322.7,873.3 1298.7,874 1274.8,874.1 1250.8,873.9 1226.9,874.2 1202.9,874.1 1179,873.6 1155,872.9 1131.1,872.6 
			1107.2,872.6 1083.2,873.5 1059.3,872.5 1035.3,873.1 1011.4,872.6 987.4,873.1 963.3,873.6 963.1,849.9 964.3,826.3 962.7,802.7 
			963.8,779.2 962.7,755.6 962.6,732 964.3,708.4 962.8,684.9 963.9,661.3 963.7,637.7 963.5,614.2 964.1,590.6 964.2,567 
			963.1,543.4 964.1,519.9 963.8,496.3 963.7,472.7 963.9,449.2 964.3,425.6 964.2,402 962.6,378.4 963.5,354.9 963.6,331.3 
			963.6,307.7 963.2,283.9 987.4,283.6 1011.3,283.4 1035.3,284.3 1059.2,284.4 1083.2,284 1107.1,284.7 1131,284.3 1155,284.5 
			1178.9,285.1 1202.9,283.2 1226.8,284 1250.8,283.2 1274.7,284.9 1298.6,284.3 1322.6,284.8 1346.5,284.6 1370.5,284 
			1394.4,284.6 1418.4,283.3 1442.3,285 1466.3,283.5 1490.2,283.8 1514.2,284 1538.1,284.2 1562,284.8 1586,285.1 1609.9,284.1 
			1633.9,285 1657.8,283.3 1681.8,283.4 1705.7,284.9 1729.6,284.2 1728.7,307.7 1730.5,331.3 1729.4,354.8 1729.4,378.4 
			1730.3,402 1729.4,425.5 1730.1,449.1 1728.9,472.7 1729.3,496.3 1728.7,519.8 1730.7,543.4 1729.7,567 1730.3,590.5 
			1730.4,614.1 1730,637.7 1729,661.3 1728.9,684.8 1730.5,708.4 1728.8,732 1729.9,755.5 1729.8,779.1 1730.5,802.7 1729.8,826.3 
			1729.1,849.9 		"/>
		<polygon class="st7" points="1730.3,874 1705.7,872.7 1681.8,872.7 1657.9,873.5 1633.9,873.9 1610,873.9 1586,872.8 
			1562.1,872.8 1538.2,873.6 1514.2,872.6 1490.3,874.2 1466.3,874.3 1442.4,872.4 1418.4,874.4 1394.5,872.7 1370.6,872.7 
			1346.6,874.2 1322.7,873.3 1298.7,874 1274.8,874.1 1250.8,873.9 1226.9,874.2 1202.9,874.1 1179,873.6 1155,872.9 1131.1,872.6 
			1107.2,872.6 1083.2,873.5 1059.3,872.5 1035.3,873.1 1011.4,872.6 987.4,873.1 963.3,873.6 963.1,849.9 964.3,826.3 962.7,802.7 
			963.8,779.2 962.7,755.6 962.6,732 964.3,708.4 962.8,684.9 963.9,661.3 963.7,637.7 963.5,614.2 964.1,590.6 964.2,567 
			963.1,543.4 964.1,519.9 963.8,496.3 963.7,472.7 963.9,449.2 964.3,425.6 964.2,402 962.6,378.4 963.5,354.9 963.6,331.3 
			963.6,307.7 963.2,283.9 987.4,283.6 1011.3,283.4 1035.3,284.3 1059.2,284.4 1083.2,284 1107.1,284.7 1131,284.3 1155,284.5 
			1178.9,285.1 1202.9,283.2 1226.8,284 1250.8,283.2 1274.7,284.9 1298.6,284.3 1322.6,284.8 1346.5,284.6 1370.5,284 
			1394.4,284.6 1418.4,283.3 1442.3,285 1466.3,283.5 1490.2,283.8 1514.2,284 1538.1,284.2 1562,284.8 1586,285.1 1609.9,284.1 
			1633.9,285 1657.8,283.3 1681.8,283.4 1705.7,284.9 1729.6,284.2 1728.7,307.7 1730.5,331.3 1729.4,354.8 1729.4,378.4 
			1730.3,402 1729.4,425.5 1730.1,449.1 1728.9,472.7 1729.3,496.3 1728.7,519.8 1730.7,543.4 1729.7,567 1730.3,590.5 
			1730.4,614.1 1730,637.7 1729,661.3 1728.9,684.8 1730.5,708.4 1728.8,732 1729.9,755.5 1729.8,779.1 1730.5,802.7 1729.8,826.3 
			1729.1,849.9 		"/>
	</g>
	<g class="st18">
		<polyline class="st22" points="1595,322.6 1612.8,340.3 1631.1,357.5 1648.2,376 1667.1,392.6 1684.9,410.4 		"/>
	</g>
	<g class="st18">
		<polyline class="st22" points="1594.9,410.4 1613.8,393.7 1631.5,375.9 1648.7,357.6 1666.2,339.5 1684,321.8 		"/>
	</g>
	<path class="st23" d="M1506.2,1491.7c4.3-15.2,9.9-35.9,14.2-51.1c2.4-8.5,5.1-17.5,11.6-23.6c5.8-5.5,13.8-7.8,20.9-11.6
		c15.1-8,25.8-22.8,31.6-38.8s7.2-33.4,7.1-50.5c-0.1-19.2-6-43.3-20.6-55.8c1.2,24.5-1.4,48.8-2.3,72.6
		c4.8-88.2,0.5-136.8,3.5-225.1c1-28.5-3.3-38.6-10.3-38.6c-6.2,0-15.2,7.1-18,27.7c-6.5,48.1-6.6,61.2-8.9,109.6
		c-12.8-2.4-26.5,1.4-36.3,9.9c-2.7,2.4-5.5,5.2-9,5.6c-2.1,0.2-4.1-0.4-6.1-0.9c-8.3-1.8-17.3,0.2-24.1,5.4
		c-7.4,5.7-12.5,15.1-21.6,17.5c-6.4,1.7-13.9,3.7-19.5,7.2c-6.3,3.9-7,12.5-7,19.9c-0.1,36.7-0.1,70.9,0.8,107.5
		c-60.7,105.4-121.4,213.6-182.1,319C1230.1,1697.6,1419.9,1534,1506.2,1491.7"/>
	<g class="st18">
		<polygon class="st21" points="2660.3,1783.4 2660.5,1759.5 2660.9,1735 2658.5,1710.7 2657.8,1686.3 2656.6,1662 2654.6,1637.6 
			2651.2,1613.5 2647.9,1589.3 2642.5,1565.6 2636.7,1541.8 2626.5,1519.6 2612.9,1499.4 2597,1481.1 2578.3,1465.4 2556.3,1455 
			2533.4,1446.5 2509.9,1440.3 2485.7,1435.8 2461.4,1432.3 2436.9,1429.6 2412.2,1429.6 2387.6,1431.6 2363.1,1434.3 2338.9,1439 
			2314.7,1443.7 2291,1450.6 2267.3,1457.5 2243.9,1465.2 2219.6,1470 2195.9,1476.8 2171.8,1481.7 2147.8,1487.3 2123.2,1489.7 
			2098.7,1492.4 2074.1,1493 2050.4,1491.6 2027,1488.1 2003.4,1485.4 1980.3,1479.8 1958.3,1471.1 1935.9,1463.3 1913.6,1455.3 
			1891.1,1447.9 1868.6,1440.7 1845.2,1436.9 1821.8,1433.5 1798.1,1431.7 1774.4,1431.7 1750.7,1433.3 1727.4,1437.4 
			1703.7,1439.3 1680.9,1445.5 1658,1451.2 1635.5,1458.1 1613.5,1466.6 1591.8,1475.7 1570.3,1485.4 1549.5,1496.6 1528.5,1507.3 
			1508.7,1520.1 1487.9,1531.4 1468.1,1544.1 1448.8,1557.7 1429.5,1571.3 1410.3,1584.9 1391.2,1598.7 1372.7,1613.3 1354,1627.7 
			1335.4,1642.1 1317.4,1657.4 1298.8,1671.9 1281.7,1688.2 1263.3,1702.9 1245.7,1718.6 1228.3,1734.5 1211.6,1751.1 1195.1,1768 
			1177.4,1784.6 1201.6,1784.7 1225.5,1783.1 1249.4,1783 1273.3,1784.2 1297.2,1784.4 1321.1,1784.6 1345,1783.4 1369,1783.1 
			1392.9,1784.3 1416.8,1784.4 1440.7,1784 1464.6,1783.6 1488.5,1784.2 1512.5,1784.6 1536.4,1783.4 1560.3,1784.3 1584.2,1784.5 
			1608.1,1783.3 1632,1784.5 1655.9,1784.6 1679.9,1783.2 1703.8,1784.7 1727.7,1783.7 1751.6,1783.1 1775.5,1783.1 1799.4,1783.2 
			1823.4,1784.6 1847.3,1784.5 1871.2,1784.7 1895.1,1784 1919,1784.8 1942.9,1783.9 1966.8,1784.2 1990.7,1784.5 2014.7,1783.4 
			2038.6,1783.1 2062.5,1784.6 2086.4,1783.3 2110.3,1783.3 2134.2,1784.5 2158.2,1784.1 2182.1,1784.1 2206,1783.8 2229.9,1784.1 
			2253.8,1784.4 2277.7,1783.7 2301.7,1784.4 2325.6,1784.8 2349.5,1784.2 2373.4,1783.1 2397.3,1784.4 2421.2,1784.8 
			2445.2,1784.7 2469.1,1783.7 2493,1783.6 2516.9,1783.6 2540.8,1784.9 2564.8,1783.5 2588.7,1783.2 2612.6,1784.7 2636.5,1784.1 
					"/>
	</g>
	<g class="st18">
		<polygon class="st24" points="2640.6,1765 2640.5,1741.5 2641,1717.1 2640.6,1692.6 2638.2,1668.3 2636.6,1644 2635.4,1619.6 
			2631.8,1595.5 2627.6,1571.5 2623.3,1547.5 2615.8,1524.3 2606.8,1501.7 2593.5,1481.3 2578.2,1462.3 2558,1448.7 2536.7,1437 
			2513.7,1429.1 2490.6,1421.2 2466.3,1416.8 2442,1412.9 2417.3,1412.1 2392.7,1412.5 2368,1413.3 2343.6,1416.6 2319.2,1420.5 
			2295.3,1426.6 2271.3,1432.2 2247.6,1438.9 2224.2,1446.6 2200.4,1453.1 2176.3,1458.4 2152.5,1465.1 2128.3,1469.8 2103.7,1472 
			2079.2,1473.5 2054.5,1474.4 2030.8,1473.7 2007.4,1470.3 1983.9,1467.2 1960.9,1461.5 1938.7,1453.2 1915.9,1446.3 
			1894.4,1436.4 1871.5,1430 1849.1,1422.1 1825.7,1418.3 1802.2,1415.2 1778.6,1413.5 1754.9,1414.7 1731.3,1416 1707.8,1419.7 
			1684.2,1421.7 1661.4,1427.7 1638.6,1433.5 1615.7,1439.5 1594.1,1448.9 1572.2,1457.6 1550.9,1467.7 1530.3,1479.3 
			1509.7,1490.7 1488.8,1501.7 1468.5,1513.6 1448.6,1526.2 1429.5,1540.1 1409.7,1552.9 1390.6,1566.7 1371.8,1580.9 
			1352.8,1594.9 1334.4,1609.7 1315.4,1623.7 1297,1638.4 1279,1653.6 1261.9,1669.9 1243.9,1685.1 1225.8,1700.2 1209.5,1717.3 
			1192.3,1733.4 1174.4,1748.8 1157.9,1766.4 1182,1764.9 1205.9,1766.6 1229.8,1765.5 1253.8,1765.5 1277.7,1766.6 1301.6,1766.5 
			1325.5,1766.4 1349.4,1766.4 1373.3,1765.2 1397.2,1765.1 1421.2,1765.7 1445.1,1766.4 1469,1765.4 1492.9,1766.8 1516.8,1766.7 
			1540.7,1765.4 1564.6,1765.2 1588.6,1766.9 1612.5,1766.8 1636.4,1764.9 1660.3,1766.1 1684.2,1766 1708.1,1766.8 1732.1,1765.9 
			1756,1765.3 1779.9,1765.1 1803.8,1765.3 1827.7,1766.6 1851.6,1765.9 1875.5,1765.4 1899.5,1766.1 1923.4,1765.4 1947.3,1766.5 
			1971.2,1764.9 1995.1,1764.9 2019,1766.1 2042.9,1766.1 2066.8,1766.2 2090.8,1765.2 2114.7,1765.2 2138.6,1765.6 2162.5,1765.8 
			2186.4,1766.4 2210.3,1765.2 2234.3,1766.6 2258.2,1765.6 2282.1,1766.6 2306,1766.6 2329.9,1765.1 2353.9,1765.4 2377.8,1766.7 
			2401.7,1765.8 2425.6,1765.1 2449.5,1765 2473.4,1765.6 2497.4,1765.3 2521.3,1765.7 2545.2,1765.7 2569.1,1766.4 2593,1765.2 
			2617,1765.3 		"/>
		<polygon class="st7" points="2640.6,1765 2640.5,1741.5 2641,1717.1 2640.6,1692.6 2638.2,1668.3 2636.6,1644 2635.4,1619.6 
			2631.8,1595.5 2627.6,1571.5 2623.3,1547.5 2615.8,1524.3 2606.8,1501.7 2593.5,1481.3 2578.2,1462.3 2558,1448.7 2536.7,1437 
			2513.7,1429.1 2490.6,1421.2 2466.3,1416.8 2442,1412.9 2417.3,1412.1 2392.7,1412.5 2368,1413.3 2343.6,1416.6 2319.2,1420.5 
			2295.3,1426.6 2271.3,1432.2 2247.6,1438.9 2224.2,1446.6 2200.4,1453.1 2176.3,1458.4 2152.5,1465.1 2128.3,1469.8 2103.7,1472 
			2079.2,1473.5 2054.5,1474.4 2030.8,1473.7 2007.4,1470.3 1983.9,1467.2 1960.9,1461.5 1938.7,1453.2 1915.9,1446.3 
			1894.4,1436.4 1871.5,1430 1849.1,1422.1 1825.7,1418.3 1802.2,1415.2 1778.6,1413.5 1754.9,1414.7 1731.3,1416 1707.8,1419.7 
			1684.2,1421.7 1661.4,1427.7 1638.6,1433.5 1615.7,1439.5 1594.1,1448.9 1572.2,1457.6 1550.9,1467.7 1530.3,1479.3 
			1509.7,1490.7 1488.8,1501.7 1468.5,1513.6 1448.6,1526.2 1429.5,1540.1 1409.7,1552.9 1390.6,1566.7 1371.8,1580.9 
			1352.8,1594.9 1334.4,1609.7 1315.4,1623.7 1297,1638.4 1279,1653.6 1261.9,1669.9 1243.9,1685.1 1225.8,1700.2 1209.5,1717.3 
			1192.3,1733.4 1174.4,1748.8 1157.9,1766.4 1182,1764.9 1205.9,1766.6 1229.8,1765.5 1253.8,1765.5 1277.7,1766.6 1301.6,1766.5 
			1325.5,1766.4 1349.4,1766.4 1373.3,1765.2 1397.2,1765.1 1421.2,1765.7 1445.1,1766.4 1469,1765.4 1492.9,1766.8 1516.8,1766.7 
			1540.7,1765.4 1564.6,1765.2 1588.6,1766.9 1612.5,1766.8 1636.4,1764.9 1660.3,1766.1 1684.2,1766 1708.1,1766.8 1732.1,1765.9 
			1756,1765.3 1779.9,1765.1 1803.8,1765.3 1827.7,1766.6 1851.6,1765.9 1875.5,1765.4 1899.5,1766.1 1923.4,1765.4 1947.3,1766.5 
			1971.2,1764.9 1995.1,1764.9 2019,1766.1 2042.9,1766.1 2066.8,1766.2 2090.8,1765.2 2114.7,1765.2 2138.6,1765.6 2162.5,1765.8 
			2186.4,1766.4 2210.3,1765.2 2234.3,1766.6 2258.2,1765.6 2282.1,1766.6 2306,1766.6 2329.9,1765.1 2353.9,1765.4 2377.8,1766.7 
			2401.7,1765.8 2425.6,1765.1 2449.5,1765 2473.4,1765.6 2497.4,1765.3 2521.3,1765.7 2545.2,1765.7 2569.1,1766.4 2593,1765.2 
			2617,1765.3 		"/>
	</g>
	<g class="st18">
		<polygon class="st11" points="1644.7,578.8 1627.6,595.9 1609.8,612.7 1590.8,628.3 1571.9,644 1552.2,658.6 1531,671 
			1510.3,684.3 1488.7,696 1466.1,705.6 1443.1,714.4 1419.4,720.8 1395.3,725.3 1371.1,729.4 1346.6,731.2 1322,730.2 1297.7,726 
			1273.7,720.8 1250.2,713.8 1227.4,704.8 1204.7,695.5 1183,683.9 1161.4,672.2 1141,658.4 1121.4,643.7 1101.6,629.2 
			1083.1,613.1 1065.2,596.3 1047.9,578.8 1064.9,561.1 1082.9,544.4 1101.9,528.8 1120.7,512.9 1141.3,499.6 1161.6,485.7 
			1182.8,473.4 1204.6,462 1227.1,452.1 1249.9,442.9 1273.7,436.5 1297.5,430.6 1322.1,428.9 1346.6,427.6 1371.1,427.7 
			1395.5,431 1419.4,436.8 1443.2,442.9 1465.7,453 1488.8,461.4 1510.2,473.5 1531.8,485.2 1552.1,499.2 1572.2,513.3 
			1591.5,528.6 1609.6,545.1 1628.4,560.9 		"/>
		<polygon class="st25" points="1644.7,578.8 1627.6,595.9 1609.8,612.7 1590.8,628.3 1571.9,644 1552.2,658.6 1531,671 
			1510.3,684.3 1488.7,696 1466.1,705.6 1443.1,714.4 1419.4,720.8 1395.3,725.3 1371.1,729.4 1346.6,731.2 1322,730.2 1297.7,726 
			1273.7,720.8 1250.2,713.8 1227.4,704.8 1204.7,695.5 1183,683.9 1161.4,672.2 1141,658.4 1121.4,643.7 1101.6,629.2 
			1083.1,613.1 1065.2,596.3 1047.9,578.8 1064.9,561.1 1082.9,544.4 1101.9,528.8 1120.7,512.9 1141.3,499.6 1161.6,485.7 
			1182.8,473.4 1204.6,462 1227.1,452.1 1249.9,442.9 1273.7,436.5 1297.5,430.6 1322.1,428.9 1346.6,427.6 1371.1,427.7 
			1395.5,431 1419.4,436.8 1443.2,442.9 1465.7,453 1488.8,461.4 1510.2,473.5 1531.8,485.2 1552.1,499.2 1572.2,513.3 
			1591.5,528.6 1609.6,545.1 1628.4,560.9 		"/>
	</g>
	<g class="st18">
		<polygon class="st12" points="1492.8,556.8 1491,580.5 1483.2,602.8 1474.7,624.9 1460.6,643.8 1443.6,660.2 1424.9,674.6 
			1403,683.6 1380.4,690.1 1356.9,691.2 1333.4,690 1310.3,684.9 1289.6,673.3 1269.3,661.2 1254,643.2 1240.5,624 1229,603.4 
			1223.2,580.4 1221.1,556.8 1222.6,534.1 1228.6,512.3 1238.5,491.9 1251.1,473.2 1266.4,456.6 1284.5,443.2 1304.4,432.7 
			1330.3,428.5 1356.9,430 1381.3,429.6 1405.7,432.3 1427.7,442.5 1446.7,455.3 1462.9,471.5 1475.3,490.9 1485,511.7 1490.2,534 
					"/>
	</g>
	<g class="st18">
		<polygon class="st7" points="1482.3,551.1 1479.2,574.5 1474.6,597.7 1464.6,619.2 1450.1,637.9 1433.4,654.6 1414.1,668 
			1393.1,678.9 1370.2,685.1 1346.6,686.6 1323,684.5 1300.4,677.8 1278.6,668.9 1260,654.2 1242.7,638.2 1230,618.4 1220.1,597.1 
			1212.6,574.7 1210.7,551.1 1214.1,527.7 1219.3,504.7 1228.7,483 1242.2,463.5 1259.4,447.2 1278.6,433.4 1300.2,423.7 
			1323,417.7 1346.6,416.3 1370.2,417.2 1393.1,423.3 1414.4,433.6 1433.1,448 1450.7,463.7 1464.1,483.2 1472.9,505.1 
			1479.9,527.6 		"/>
	</g>
	<g class="st18">
		<polygon class="st21" points="1404.2,551.1 1400,573.2 1386.3,590.8 1368.1,603 1346.6,609.2 1324.8,603.7 1306.3,591.4 
			1294.6,572.6 1289.4,551.1 1293.2,529 1305.6,510.1 1324.5,497.8 1346.6,494.6 1368.4,498.3 1387.3,510.4 1399.2,529.3 		"/>
		<polygon class="st25" points="1404.2,551.1 1400,573.2 1386.3,590.8 1368.1,603 1346.6,609.2 1324.8,603.7 1306.3,591.4 
			1294.6,572.6 1289.4,551.1 1293.2,529 1305.6,510.1 1324.5,497.8 1346.6,494.6 1368.4,498.3 1387.3,510.4 1399.2,529.3 		"/>
	</g>
	<g class="st18">
		<polygon class="st12" points="2402.2,578.5 2378.5,578.4 2354.5,579.1 2330.5,579.8 2306.5,578.4 2282.5,579.7 2258.5,579.6 
			2234.5,578.8 2210.5,579.7 2186.5,579.5 2162.5,577.9 2138.5,579.8 2114.5,579 2090.5,579.3 2066.5,578.5 2041.9,579.4 
			2042,554.6 2042.7,530.4 2042.2,506.2 2041.6,482.1 2042,457.9 2041.5,433.7 2041.6,409.5 2041.5,385.3 2042.4,361.1 2043,336.9 
			2042.9,312.7 2042.5,288.5 2041.8,264.3 2042.3,240.1 2042.5,215.9 2043,191.7 2042.6,167.5 2043.2,143.3 2042,119.1 2041.9,94.4 
			2066.5,94.4 2090.5,94.2 2114.5,94.5 2138.5,94.7 2162.5,95.1 2186.5,94.9 2210.5,95.7 2234.5,95.7 2258.5,94.9 2282.5,95.8 
			2306.5,94.6 2330.5,95.9 2354.5,95.6 2378.5,95 2403,94.5 2402.9,119.1 2401.6,143.3 2402.1,167.5 2402.6,191.7 2402.8,215.9 
			2403.3,240.1 2401.7,264.3 2402.7,288.5 2403.5,312.7 2402.8,336.9 2401.7,361 2402,385.2 2403.5,409.4 2402.3,433.6 
			2403.1,457.8 2402.2,482 2402.4,506.2 2401.7,530.4 2402.4,554.6 		"/>
		<polygon class="st7" points="2402.2,578.5 2378.5,578.4 2354.5,579.1 2330.5,579.8 2306.5,578.4 2282.5,579.7 2258.5,579.6 
			2234.5,578.8 2210.5,579.7 2186.5,579.5 2162.5,577.9 2138.5,579.8 2114.5,579 2090.5,579.3 2066.5,578.5 2041.9,579.4 
			2042,554.6 2042.7,530.4 2042.2,506.2 2041.6,482.1 2042,457.9 2041.5,433.7 2041.6,409.5 2041.5,385.3 2042.4,361.1 2043,336.9 
			2042.9,312.7 2042.5,288.5 2041.8,264.3 2042.3,240.1 2042.5,215.9 2043,191.7 2042.6,167.5 2043.2,143.3 2042,119.1 2041.9,94.4 
			2066.5,94.4 2090.5,94.2 2114.5,94.5 2138.5,94.7 2162.5,95.1 2186.5,94.9 2210.5,95.7 2234.5,95.7 2258.5,94.9 2282.5,95.8 
			2306.5,94.6 2330.5,95.9 2354.5,95.6 2378.5,95 2403,94.5 2402.9,119.1 2401.6,143.3 2402.1,167.5 2402.6,191.7 2402.8,215.9 
			2403.3,240.1 2401.7,264.3 2402.7,288.5 2403.5,312.7 2402.8,336.9 2401.7,361 2402,385.2 2403.5,409.4 2402.3,433.6 
			2403.1,457.8 2402.2,482 2402.4,506.2 2401.7,530.4 2402.4,554.6 		"/>
	</g>
	<g class="st18">
		<polyline class="st7" points="2094.5,256.1 2117.5,254.9 2140.5,256.3 2163.5,255.3 2186.5,256.3 2209.5,256.3 2232.5,254.8 
			2255.6,255.1 2278.6,256.4 2301.6,255.5 2324.6,254.8 2347.6,254.7 		"/>
	</g>
	<g class="st18">
		<polyline class="st7" points="2094.5,205.4 2117.5,204.7 2140.5,205.8 2163.5,204.2 2186.5,204.2 2209.5,205.3 2232.5,205.4 
			2255.6,205.5 2278.6,204.5 2301.6,204.4 2324.6,204.9 2347.6,205.1 		"/>
	</g>
	<g class="st18">
		<polyline class="st7" points="2094.5,155.7 2117.5,153.8 2140.5,155 2163.5,154.9 2186.5,155.7 2209.5,154.8 2232.5,154.2 
			2255.6,154 2278.6,154.2 2301.6,155.5 2324.6,154.8 2347.6,154.3 		"/>
	</g>
	<g class="st18">
		<polyline class="st7" points="2094.5,306.5 2117.5,306.5 2140.5,305.2 2163.5,305.2 2186.5,305.8 2209.5,306.5 2232.5,305.5 
			2255.6,306.9 2278.6,306.7 2301.6,305.5 2324.6,305.3 2347.6,307 		"/>
	</g>
	<g class="st18">
		<polyline class="st7" points="2094.5,356.4 2117.5,357.3 2140.5,355.7 2163.5,355.7 2186.5,357 2209.5,356.9 2232.5,355.4 
			2255.6,357.1 2278.6,356 2301.6,356 2324.6,357.1 2347.6,357 		"/>
	</g>
	<g class="st18">
		<polyline class="st7" points="2094.5,407.2 2117.5,407.3 2140.5,406.2 2163.5,406.9 2186.5,406.8 2209.5,406.5 2232.5,406.8 
			2255.6,406.4 2278.6,407.4 2301.6,407.7 2324.6,407.6 2347.6,406.3 		"/>
	</g>
	<g class="st18">
		<polyline class="st7" points="2094.5,457.3 2117.5,456.3 2140.5,457.7 2163.5,456.4 2186.5,456.7 2209.5,458.1 2232.5,457 
			2255.6,457.6 2278.6,457.4 2301.6,456.5 2324.6,456.3 2347.6,457.2 		"/>
	</g>
	<g class="st18">
		<polyline class="st7" points="2094.5,506.9 2118.7,508.4 2142.9,507 2167.1,508.4 2191.3,507.5 2215.5,507.7 2239.7,508.3 
			2263.9,507.5 		"/>
	</g>
	<path class="st23" d="M1871.6,1325c0,0,65.1,19.6,107.9-69.3"/>
	<path class="st26" d="M1986.8,1107.8c0,0,9-42,41.3-36.6c22.2,3.7,5.2,77.6-44.8,101.6c-25.1,12-23.7-20.1,3-32
		c17.5-7.8,13.9-24.8-6.7-18.3"/>
	
		<ellipse transform="matrix(0.1295 -0.9916 0.9916 0.1295 552.5023 2749.1685)" class="st27" cx="1842.1" cy="1059.9" rx="51.7" ry="17.4"/>
	<line class="st28" x1="1855.6" y1="1040.5" x2="1982.5" y2="1069.2"/>
</g>
</svg>
