<?xml version="1.0" encoding="utf-8"?>
<!-- Generator: Adobe Illustrator 24.1.0, SVG Export Plug-In . SVG Version: 6.00 Build 0)  -->
<svg version="1.1" xmlns="http://www.w3.org/2000/svg" xmlns:xlink="http://www.w3.org/1999/xlink" x="0px" y="0px"
	 viewBox="0 0 3600 1800" style="enable-background:new 0 0 3600 1800;" xml:space="preserve">
<style type="text/css">
	.st0{fill:none;}
	.st1{fill:#3A2F88;}
	.st2{fill:none;stroke:#1E3C57;stroke-width:4;}
	.st3{fill:#7DCCE1;stroke:#000000;stroke-miterlimit:10;}
	.st4{opacity:0.6;fill:#FFFFFF;stroke:#000000;stroke-miterlimit:10;}
	.st5{fill:none;stroke:#1E3C57;stroke-width:5;stroke-miterlimit:10;}
	.st6{fill:url(#SVGID_1_);}
	.st7{fill:#FFFFFF;}
	.st8{fill:url(#SVGID_2_);}
	.st9{fill:#1E3C57;}
	.st10{fill:none;stroke:#FFFFFF;stroke-width:5;stroke-miterlimit:10;}
	.st11{fill:#FFFFFF;stroke:#1E3C57;stroke-width:5;stroke-miterlimit:10;}
	.st12{fill:url(#Grid_.25_inch_Lines);}
	.st13{fill:none;stroke:#3A2F88;stroke-width:5;stroke-miterlimit:10;}
	.st14{fill:#FABC58;}
	.st15{fill:#FFFFFF;stroke:#3A2F88;stroke-width:5;stroke-miterlimit:10;}
	.st16{fill:#1E3C57;stroke:#1E3C57;stroke-width:5;stroke-miterlimit:10;}
	.st17{fill:#3A2F88;stroke:#1E3C57;stroke-width:5;stroke-miterlimit:10;}
</style>
<pattern  x="1249.8" y="663.1" width="48" height="48" patternUnits="userSpaceOnUse" id="_x36__dpi_20_x25_" viewBox="2.4 -50.4 48 48" style="overflow:visible;">
	<g>
		<rect x="2.4" y="-50.4" class="st0" width="48" height="48"/>
		<g>
			<path class="st1" d="M26.4,0c1.3,0,2.4-1.1,2.4-2.4c0-1.3-1.1-2.4-2.4-2.4c-1.3,0-2.4,1.1-2.4,2.4C24-1.1,25.1,0,26.4,0z"/>
			<path class="st1" d="M50.4,0c1.3,0,2.4-1.1,2.4-2.4c0-1.3-1.1-2.4-2.4-2.4c-1.3,0-2.4,1.1-2.4,2.4C48-1.1,49.1,0,50.4,0z"/>
			<path class="st1" d="M26.4-24c1.3,0,2.4-1.1,2.4-2.4c0-1.3-1.1-2.4-2.4-2.4c-1.3,0-2.4,1.1-2.4,2.4C24-25.1,25.1-24,26.4-24z"/>
			<path class="st1" d="M50.4-24c1.3,0,2.4-1.1,2.4-2.4c0-1.3-1.1-2.4-2.4-2.4c-1.3,0-2.4,1.1-2.4,2.4C48-25.1,49.1-24,50.4-24z"/>
			<path class="st1" d="M38.4-12c1.3,0,2.4-1.1,2.4-2.4c0-1.3-1.1-2.4-2.4-2.4c-1.3,0-2.4,1.1-2.4,2.4C36-13.1,37.1-12,38.4-12z"/>
			<path class="st1" d="M14.4-12c1.3,0,2.4-1.1,2.4-2.4c0-1.3-1.1-2.4-2.4-2.4c-1.3,0-2.4,1.1-2.4,2.4C12-13.1,13.1-12,14.4-12z"/>
			<path class="st1" d="M38.4-36c1.3,0,2.4-1.1,2.4-2.4c0-1.3-1.1-2.4-2.4-2.4c-1.3,0-2.4,1.1-2.4,2.4C36-37.1,37.1-36,38.4-36z"/>
			<path class="st1" d="M14.4-36c1.3,0,2.4-1.1,2.4-2.4c0-1.3-1.1-2.4-2.4-2.4c-1.3,0-2.4,1.1-2.4,2.4C12-37.1,13.1-36,14.4-36z"/>
		</g>
		<g>
			<path class="st1" d="M2.4,0c1.3,0,2.4-1.1,2.4-2.4c0-1.3-1.1-2.4-2.4-2.4C1.1-4.8,0-3.7,0-2.4C0-1.1,1.1,0,2.4,0z"/>
			<path class="st1" d="M2.4-24c1.3,0,2.4-1.1,2.4-2.4c0-1.3-1.1-2.4-2.4-2.4c-1.3,0-2.4,1.1-2.4,2.4C0-25.1,1.1-24,2.4-24z"/>
		</g>
		<g>
			<path class="st1" d="M26.4-48c1.3,0,2.4-1.1,2.4-2.4c0-1.3-1.1-2.4-2.4-2.4c-1.3,0-2.4,1.1-2.4,2.4C24-49.1,25.1-48,26.4-48z"/>
			<path class="st1" d="M50.4-48c1.3,0,2.4-1.1,2.4-2.4c0-1.3-1.1-2.4-2.4-2.4c-1.3,0-2.4,1.1-2.4,2.4C48-49.1,49.1-48,50.4-48z"/>
		</g>
		<g>
			<path class="st1" d="M2.4-48c1.3,0,2.4-1.1,2.4-2.4c0-1.3-1.1-2.4-2.4-2.4c-1.3,0-2.4,1.1-2.4,2.4C0-49.1,1.1-48,2.4-48z"/>
		</g>
	</g>
</pattern>
<pattern  x="1249.8" y="663.1" width="48" height="48" patternUnits="userSpaceOnUse" id="_x36__dpi_30_x25_" viewBox="3.6 -51.6 48 48" style="overflow:visible;">
	<g>
		<rect x="3.6" y="-51.6" class="st0" width="48" height="48"/>
		<g>
			<circle class="st1" cx="27.6" cy="-3.6" r="3.6"/>
			<circle class="st1" cx="51.6" cy="-3.6" r="3.6"/>
			<circle class="st1" cx="27.6" cy="-27.6" r="3.6"/>
			<circle class="st1" cx="51.6" cy="-27.6" r="3.6"/>
			<circle class="st1" cx="39.6" cy="-15.6" r="3.6"/>
			<circle class="st1" cx="15.6" cy="-15.6" r="3.6"/>
			<circle class="st1" cx="39.6" cy="-39.6" r="3.6"/>
			<circle class="st1" cx="15.6" cy="-39.6" r="3.6"/>
		</g>
		<g>
			<circle class="st1" cx="3.6" cy="-3.6" r="3.6"/>
			<circle class="st1" cx="3.6" cy="-27.6" r="3.6"/>
		</g>
		<g>
			<circle class="st1" cx="27.6" cy="-51.6" r="3.6"/>
			<circle class="st1" cx="51.6" cy="-51.6" r="3.6"/>
		</g>
		<g>
			<circle class="st1" cx="3.6" cy="-51.6" r="3.6"/>
		</g>
	</g>
</pattern>
<pattern  x="1249.8" y="663.1" width="72" height="72" patternUnits="userSpaceOnUse" id="Grid_.25_inch_Lines" viewBox="72.2 -144.2 72 72" style="overflow:visible;">
	<g>
		<rect x="72.2" y="-144.2" class="st0" width="72" height="72"/>
		<g>
			<line class="st2" x1="99.2" y1="-72.5" x2="99.2" y2="0"/>
		</g>
		<g>
			<line class="st2" x1="144" y1="-81.2" x2="216.5" y2="-81.2"/>
		</g>
		<g>
			<line class="st2" x1="72" y1="-81.2" x2="144.5" y2="-81.2"/>
			<line class="st2" x1="99.2" y1="-144.5" x2="99.2" y2="-72"/>
		</g>
		<g>
			<line class="st2" x1="0" y1="-81.2" x2="72.5" y2="-81.2"/>
		</g>
		<g>
			<line class="st2" x1="99.2" y1="-216.5" x2="99.2" y2="-144"/>
		</g>
	</g>
</pattern>
<g id="Layer_2">
	<rect class="st3" width="3600" height="1800"/>
	<polygon class="st4" points="3395.7,1285.4 171.9,1656.3 171.9,514.6 3395.7,143.7 	"/>
</g>
<g id="Layer_1">
	<g>
		<polygon class="st5" points="1080.8,1588.8 1066.3,1601.1 1047.9,1605.6 1029.6,1600.9 1015,1588.8 1030.1,1577.5 1047.9,1571.4 
			1066.2,1576.6 		"/>
	</g>
	<g>
		<polygon class="st5" points="996.9,1045.7 981.8,1058 963.5,1061.5 945.6,1056.9 931.6,1045.7 945.6,1034.3 963.5,1029.6 
			981.5,1034 		"/>
	</g>
	<g>
		<polygon class="st5" points="920,198.5 905.6,209.9 887.7,215.2 869.5,210.5 854.4,198.5 869.5,186.6 887.7,182.8 905.8,186.7 		
			"/>
	</g>
	<g>
		<polygon class="st5" points="1295,1383.4 1280.4,1394.1 1262.9,1400.9 1245.1,1394.6 1229.7,1383.4 1244.4,1371 1262.9,1365.8 
			1281.2,1371.2 		"/>
	</g>
	<g>
		<polygon class="st5" points="2591.1,1343.6 2576.4,1355 2558.5,1360.6 2540.2,1355.7 2526.4,1343.6 2540.3,1331.6 2558.5,1326.5 
			2577,1331.2 		"/>
	</g>
	<g>
		<polygon class="st5" points="1130.8,28.1 1114.8,38.9 1097.2,43.9 1079.2,39.7 1063.7,28.1 1079.5,17.2 1097.2,10.5 1115.1,16.6 
					"/>
	</g>
	<g>
		<polygon class="st5" points="1328.4,98.3 1313.9,110.3 1295.7,115.9 1277.7,109.8 1263.1,98.3 1277.5,86.3 1295.7,82.3 
			1313.7,86.8 		"/>
	</g>
	<g>
		<polygon class="st5" points="1677.6,154.7 1662.9,165.7 1645.2,171.2 1627.2,166.4 1612,154.7 1626.8,142.4 1645.2,138.3 
			1663.2,143.2 		"/>
	</g>
	<g>
		<polygon class="st5" points="1874.2,61.9 1860.3,73.8 1842.1,78.9 1824.5,72.8 1808.9,61.9 1824.4,50.9 1842.1,45.1 1859.6,51.2 
					"/>
	</g>
	<g>
		<polygon class="st5" points="2557.9,61.9 2543.8,73.6 2525.7,78 2507.9,73.2 2492.5,61.9 2508,51 2525.7,44.9 2544.1,49.6 		"/>
	</g>
	<g>
		<polygon class="st5" points="893.1,608.3 878.7,620.1 860.5,625.5 842.1,620.6 827.1,608.3 842.7,596.9 860.5,591.2 878.9,595.9 
					"/>
	</g>
	<g>
		<polygon class="st5" points="2695.2,634.5 2680.6,646.7 2662.3,651.8 2644.7,645.3 2629.5,634.5 2644,622.3 2662.3,617.4 
			2680.3,622.9 		"/>
	</g>
	<g>
		<polygon class="st5" points="2657.8,819.2 2641.8,830.2 2624.1,835.8 2605.8,831.5 2590.5,819.2 2605.8,807 2624.1,801.6 
			2642.4,807.2 		"/>
	</g>
	<g>
		<polygon class="st5" points="953.7,1326.9 938.5,1338.4 920.5,1344 902.9,1337.6 887,1326.9 902.4,1315.1 920.5,1309.7 
			938.9,1314.6 		"/>
	</g>
	<g>
		<pattern  id="SVGID_1_" xlink:href="#_x36__dpi_30_x25_" patternTransform="matrix(1 0 0 1 216.9175 -263.0929)">
		</pattern>
		<polygon class="st6" points="2520.3,1320.6 2496.6,1320.5 2472.8,1321.2 2449,1321 2425.2,1321.1 2401.4,1320 2377.6,1320.7 
			2353.8,1320.2 2330,1320.7 2306.2,1321 2282.4,1320 2258.6,1321.6 2234.8,1320.2 2211,1320.8 2187.2,1320.5 2163.4,1320.9 
			2139.6,1321.2 2115.8,1321.1 2092,1320.8 2068.2,1320.8 2044.4,1321 2020.6,1321.6 1996.8,1320.9 1973,1321.3 1949.2,1320.7 
			1925.4,1319.9 1901.6,1321.3 1877.8,1320.3 1854,1320.4 1830.2,1320.1 1806.4,1321.2 1782.6,1320.1 1758.8,1321.6 1735,1319.8 
			1711.2,1320.9 1687.4,1320.6 1663.6,1321.4 1639.8,1319.9 1616,1321.1 1592.2,1320 1568.4,1320.9 1544.6,1321 1520.8,1320.2 
			1497,1321.2 1473.2,1321 1449.4,1320.9 1425.6,1319.8 1401.8,1320.8 1377.9,1320.1 1354.1,1320.1 1330.3,1320 1306.5,1321 
			1282.7,1319.9 1258.9,1319.9 1235.1,1320.7 1211.3,1321 1187.5,1320.3 1163.7,1321 1139.9,1319.8 1116.1,1321.1 1092.1,1320.9 
			1093.1,1296.5 1091.6,1272.3 1092.9,1248 1092.2,1223.8 1093.1,1199.6 1092.2,1175.3 1093.2,1151.1 1093.1,1126.8 1091.8,1102.6 
			1092.5,1078.4 1091.3,1054.1 1092.7,1029.9 1092.2,1005.7 1092,981.4 1091.5,957.2 1093,932.9 1092.2,908.7 1092.7,884.5 
			1092.1,860.2 1092.6,836 1091.8,811.8 1091.7,787.5 1092.5,763.3 1092.1,739 1092.4,714.8 1092.8,690.6 1093.1,666.3 
			1091.7,642.1 1093.1,617.8 1092.8,593.6 1092.4,569.4 1092.8,545.1 1092.4,520.9 1091.5,496.6 1093.3,472.4 1091.4,448.2 
			1092,423.9 1092.4,399.7 1092.3,375.4 1092.2,351.2 1093,326.9 1091.4,302.7 1092.4,278.5 1092.4,254.2 1092.3,230 1116.1,230.9 
			1139.9,229.1 1163.7,229.8 1187.5,229.3 1211.3,229.3 1235.1,229.3 1258.9,230.3 1282.7,229.4 1306.5,229 1330.3,230.8 
			1354.1,230.9 1377.9,229.5 1401.7,230.9 1425.5,229 1449.3,229.6 1473.1,230 1496.9,230.7 1520.7,229.7 1544.5,230.5 
			1568.3,229.6 1592.1,229.2 1615.9,229.8 1639.7,229.4 1663.5,229.6 1687.3,229.9 1711.1,230.8 1734.9,229.5 1758.7,229.4 
			1782.5,230.2 1806.3,229.9 1830.1,229.5 1853.9,230 1877.7,230.8 1901.5,230 1925.3,230.5 1949.1,229 1972.9,229.1 1996.7,229 
			2020.5,230.3 2044.3,229.7 2068.1,230.1 2091.9,229.2 2115.7,229.7 2139.5,230.9 2163.3,229.5 2187.2,229.6 2211,229.5 
			2234.8,229.6 2258.6,229.9 2282.4,230.2 2306.2,230.7 2330,229.7 2353.8,229.8 2377.6,230.4 2401.4,229.8 2425.2,229.3 
			2449,229.1 2472.8,230.8 2496.6,229.8 2520.2,230.2 2520.2,254.2 2521.4,278.4 2521.2,302.7 2519.9,326.9 2521,351.1 
			2519.8,375.4 2521,399.6 2521.2,423.9 2520.8,448.1 2519.7,472.3 2520,496.6 2520.2,520.8 2521.3,545 2519.6,569.3 2519.5,593.5 
			2520.9,617.8 2521.1,642 2519.6,666.2 2520.5,690.5 2520.2,714.7 2520.3,738.9 2521.2,763.2 2521,787.4 2520,811.7 2519.8,835.9 
			2519.5,860.1 2521.1,884.4 2520.6,908.6 2519.9,932.9 2521,957.1 2520.4,981.3 2520.9,1005.6 2520.1,1029.8 2521.3,1054.1 
			2520.2,1078.3 2520.2,1102.5 2519.8,1126.8 2520.8,1151 2520,1175.3 2520.9,1199.5 2520.6,1223.8 2519.5,1248 2519.6,1272.2 
			2521.2,1296.5 		"/>
	</g>
	<g>
		<polygon class="st7" points="2558.7,1283.4 2534.4,1283.9 2510.3,1282.2 2486.2,1283.2 2462.1,1283.7 2438,1283.9 2413.9,1283.3 
			2389.8,1283.3 2365.7,1284.2 2341.6,1283 2317.4,1283.2 2293.3,1282.9 2269.2,1282.5 2245.1,1283.6 2221,1283.9 2196.9,1282.6 
			2172.8,1282.8 2148.7,1283.2 2124.6,1283.3 2100.5,1282.3 2076.4,1283.6 2052.3,1282.7 2028.2,1284.1 2004.1,1283.1 
			1979.9,1283.5 1955.8,1284 1931.7,1282.9 1907.6,1282.8 1883.5,1282.6 1859.4,1284 1835.3,1282.8 1811.2,1282.8 1787.1,1282.8 
			1763,1282.6 1738.9,1282.7 1714.8,1283.6 1690.7,1283.3 1666.6,1283.7 1642.5,1283.2 1618.4,1283 1594.2,1284.2 1570.1,1283.2 
			1546,1282.3 1521.9,1282.3 1497.8,1282.3 1473.7,1283.3 1449.6,1282.7 1425.5,1282.4 1401.4,1282.4 1377.3,1283.1 1353.1,1283.1 
			1329,1283.7 1304.9,1282.8 1280.8,1283.8 1256.7,1283.6 1232.6,1282.6 1208.5,1282.7 1184.4,1282.7 1160.2,1282.7 1136.5,1282.8 
			1136.1,1259.1 1135.9,1235 1136.1,1210.9 1136.6,1186.8 1135.5,1162.7 1135.6,1138.6 1136.6,1114.5 1136.1,1090.4 1137,1066.3 
			1136.6,1042.2 1136,1018.1 1136.5,994 1135.6,969.9 1137,945.8 1135.4,921.7 1137,897.6 1135.5,873.5 1136.5,849.4 1136.9,825.3 
			1135.8,801.2 1136.7,777.1 1135.8,752.9 1137,728.8 1136.2,704.7 1135.2,680.6 1136.7,656.5 1135.2,632.4 1135.4,608.3 
			1135.7,584.2 1137,560.1 1136.7,536 1136.1,511.9 1136.1,487.8 1136.9,463.7 1135.5,439.6 1136.1,415.5 1135.2,391.4 
			1135.6,367.3 1136.6,343.2 1136.6,319 1136.2,294.9 1136.6,270.8 1136.1,246.7 1135.8,222.6 1136.2,198.6 1160.2,198.3 
			1184.3,199.3 1208.4,198.9 1232.6,198 1256.7,199.2 1280.8,197.9 1304.9,199.3 1329,198.7 1353.1,199.3 1377.2,197.9 
			1401.3,197.5 1425.4,199.1 1449.5,198.6 1473.6,197.7 1497.7,198.4 1521.8,198.6 1545.9,198.9 1570,197.6 1594.2,199.3 
			1618.3,199.3 1642.4,199.2 1666.5,198.8 1690.6,198.7 1714.7,199.1 1738.8,199.4 1762.9,198.1 1787,199.1 1811.1,198.7 
			1835.2,198 1859.3,197.9 1883.4,198.9 1907.5,197.8 1931.6,198.8 1955.7,199.4 1979.9,198.1 2004,199 2028.1,198.2 2052.2,198.9 
			2076.3,197.7 2100.4,199.4 2124.5,198.2 2148.6,197.5 2172.7,199.2 2196.8,198 2220.9,198 2245.1,199 2269.2,197.7 2293.3,197.6 
			2317.4,198.4 2341.5,198.8 2365.6,197.5 2389.7,198.4 2413.8,197.5 2437.9,197.8 2462,197.8 2486.2,199.3 2510.3,198.6 
			2534.4,199.5 2558.9,198.1 2559.2,222.6 2557.8,246.7 2558.4,270.8 2558.7,294.9 2559.3,319 2558.3,343.1 2557.6,367.2 
			2558,391.3 2558.4,415.4 2558.7,439.5 2557.8,463.6 2558.1,487.7 2558.9,511.8 2559.3,535.9 2558,560 2559.3,584.1 2559.3,608.2 
			2558.7,632.3 2558.2,656.4 2557.6,680.5 2558.3,704.6 2558,728.7 2558.2,752.9 2557.7,777 2558.5,801.1 2557.6,825.2 
			2559.1,849.3 2558,873.4 2557.5,897.5 2558.3,921.6 2559.3,945.7 2558.1,969.8 2558,993.9 2557.6,1018 2557.9,1042.1 
			2558.4,1066.2 2558.1,1090.3 2558.5,1114.4 2559.1,1138.5 2559.3,1162.7 2558.9,1186.8 2557.7,1210.9 2558.8,1235 2559.3,1259.1 
					"/>
		<polygon class="st5" points="2558.7,1283.4 2534.4,1283.9 2510.3,1282.2 2486.2,1283.2 2462.1,1283.7 2438,1283.9 2413.9,1283.3 
			2389.8,1283.3 2365.7,1284.2 2341.6,1283 2317.4,1283.2 2293.3,1282.9 2269.2,1282.5 2245.1,1283.6 2221,1283.9 2196.9,1282.6 
			2172.8,1282.8 2148.7,1283.2 2124.6,1283.3 2100.5,1282.3 2076.4,1283.6 2052.3,1282.7 2028.2,1284.1 2004.1,1283.1 
			1979.9,1283.5 1955.8,1284 1931.7,1282.9 1907.6,1282.8 1883.5,1282.6 1859.4,1284 1835.3,1282.8 1811.2,1282.8 1787.1,1282.8 
			1763,1282.6 1738.9,1282.7 1714.8,1283.6 1690.7,1283.3 1666.6,1283.7 1642.5,1283.2 1618.4,1283 1594.2,1284.2 1570.1,1283.2 
			1546,1282.3 1521.9,1282.3 1497.8,1282.3 1473.7,1283.3 1449.6,1282.7 1425.5,1282.4 1401.4,1282.4 1377.3,1283.1 1353.1,1283.1 
			1329,1283.7 1304.9,1282.8 1280.8,1283.8 1256.7,1283.6 1232.6,1282.6 1208.5,1282.7 1184.4,1282.7 1160.2,1282.7 1136.5,1282.8 
			1136.1,1259.1 1135.9,1235 1136.1,1210.9 1136.6,1186.8 1135.5,1162.7 1135.6,1138.6 1136.6,1114.5 1136.1,1090.4 1137,1066.3 
			1136.6,1042.2 1136,1018.1 1136.5,994 1135.6,969.9 1137,945.8 1135.4,921.7 1137,897.6 1135.5,873.5 1136.5,849.4 1136.9,825.3 
			1135.8,801.2 1136.7,777.1 1135.8,752.9 1137,728.8 1136.2,704.7 1135.2,680.6 1136.7,656.5 1135.2,632.4 1135.4,608.3 
			1135.7,584.2 1137,560.1 1136.7,536 1136.1,511.9 1136.1,487.8 1136.9,463.7 1135.5,439.6 1136.1,415.5 1135.2,391.4 
			1135.6,367.3 1136.6,343.2 1136.6,319 1136.2,294.9 1136.6,270.8 1136.1,246.7 1135.8,222.6 1136.2,198.6 1160.2,198.3 
			1184.3,199.3 1208.4,198.9 1232.6,198 1256.7,199.2 1280.8,197.9 1304.9,199.3 1329,198.7 1353.1,199.3 1377.2,197.9 
			1401.3,197.5 1425.4,199.1 1449.5,198.6 1473.6,197.7 1497.7,198.4 1521.8,198.6 1545.9,198.9 1570,197.6 1594.2,199.3 
			1618.3,199.3 1642.4,199.2 1666.5,198.8 1690.6,198.7 1714.7,199.1 1738.8,199.4 1762.9,198.1 1787,199.1 1811.1,198.7 
			1835.2,198 1859.3,197.9 1883.4,198.9 1907.5,197.8 1931.6,198.8 1955.7,199.4 1979.9,198.1 2004,199 2028.1,198.2 2052.2,198.9 
			2076.3,197.7 2100.4,199.4 2124.5,198.2 2148.6,197.5 2172.7,199.2 2196.8,198 2220.9,198 2245.1,199 2269.2,197.7 2293.3,197.6 
			2317.4,198.4 2341.5,198.8 2365.6,197.5 2389.7,198.4 2413.8,197.5 2437.9,197.8 2462,197.8 2486.2,199.3 2510.3,198.6 
			2534.4,199.5 2558.9,198.1 2559.2,222.6 2557.8,246.7 2558.4,270.8 2558.7,294.9 2559.3,319 2558.3,343.1 2557.6,367.2 
			2558,391.3 2558.4,415.4 2558.7,439.5 2557.8,463.6 2558.1,487.7 2558.9,511.8 2559.3,535.9 2558,560 2559.3,584.1 2559.3,608.2 
			2558.7,632.3 2558.2,656.4 2557.6,680.5 2558.3,704.6 2558,728.7 2558.2,752.9 2557.7,777 2558.5,801.1 2557.6,825.2 
			2559.1,849.3 2558,873.4 2557.5,897.5 2558.3,921.6 2559.3,945.7 2558.1,969.8 2558,993.9 2557.6,1018 2557.9,1042.1 
			2558.4,1066.2 2558.1,1090.3 2558.5,1114.4 2559.1,1138.5 2559.3,1162.7 2558.9,1186.8 2557.7,1210.9 2558.8,1235 2559.3,1259.1 
					"/>
	</g>
	<g>
		<polyline class="st5" points="1135.6,1188.6 1155.3,1174.9 1174.8,1160.8 1194.8,1147.4 1214.7,1134 1235.3,1121.6 1255.9,1109.1 
			1276.1,1096.2 1296.3,1083.3 1316.5,1070.2 1337.3,1058.3 1358.2,1046.2 1379.2,1034.7 1399.9,1022.4 1421.1,1011.2 1441.6,998.6 
			1462.5,986.8 1483.8,975.7 1505,964.4 1526.5,953.7 1548,942.9 1569.7,932.6 1591.2,921.9 1613.2,912.2 1634.9,902 1656.4,891.2 
			1678.6,882.1 1700.1,871.2 1722.7,862.9 1744.7,853.2 1766.6,843.5 1788.6,833.7 1811,825.1 1833.9,817.6 1856.2,808.7 
			1878.5,799.9 1901.1,791.6 1923.6,783.2 1946.9,777 1969.4,768.5 1992,760.6 2015.2,754.1 2038.6,748.3 2061.6,741.4 
			2084.3,733.5 2107.8,728.6 2130.9,721.8 2154.5,717 2177.8,711.4 2201.4,706.9 2224.8,701.3 2248.4,696.9 2272,692 2295.7,688.4 
			2319.2,683.3 2343.2,681 2367,678.2 2390.8,674.9 2414.6,671 2438.5,668.7 2462.5,666.9 2486.6,666.8 2510.5,665.1 2534.5,663.3 
			2558.5,662.2 		"/>
	</g>
	<g>
		<polyline class="st5" points="1840.3,198.2 1852.3,218.9 1863.7,239.9 1873.4,261.8 1883.8,283.3 1892.9,305.5 1902.4,327.4 
			1912.8,349 1921.5,371.3 1929.8,393.7 1937.2,416.4 1946.3,438.6 1954,461.3 1961.1,484.1 1967.9,507 1975.5,529.7 1982.2,552.7 
			1989.4,575.5 1994.7,598.8 2001.5,621.8 2007.3,645 2014.3,667.9 2019.3,691.3 2025.7,714.3 2030.3,737.8 2035.3,761.2 
			2041.7,784.3 2046.2,807.8 2050.3,831.4 2055.2,854.8 2059.8,878.2 2064.9,901.6 2070,925 2072.8,948.8 2078.1,972.2 
			2081.9,995.8 2084.9,1019.5 2089.4,1043 2092.8,1066.7 2094.7,1090.6 2099.9,1114 2102.3,1137.9 2105.7,1161.5 2107.9,1185.4 
			2111.9,1209 2114.3,1232.8 2116.3,1256.6 2119.4,1280.4 		"/>
	</g>
	<g>
		<pattern  id="SVGID_2_" xlink:href="#_x36__dpi_20_x25_" patternTransform="matrix(1 0 0 1 136.017 -199.101)">
		</pattern>
		<path class="st8" d="M1451.1,800.5c25.3,37.7,49.7,78,72.3,120.6c137.2-68.5,300.5-138.2,478.1-190.6
			c-30.3-133.2-62.4-239.5-91.6-321.9C1715.1,528.7,1564.6,668.8,1451.1,800.5z"/>
	</g>
	<g>
		<g>
			<polyline class="st7" points="1983.2,951.7 1978.7,927.9 1968.7,906.1 1949.4,892 1926.4,885.1 1902.2,884.1 1877.9,886.4 
				1867.1,908 1857.7,930.1 1853.2,953.7 1848.3,977.2 1845,1001 1845.6,1025.1 1841.5,1048.2 1834.6,1070.4 1825,1091.7 
				1812.7,1111.7 1797.7,1129.7 1784.7,1148.4 1798.5,1161.8 1819.3,1166.1 1840.3,1169.2 1838.2,1193.1 1837,1217.1 1836.9,1241.1 
				1840.9,1264.7 1846.9,1287.8 1855.4,1310.2 1873.7,1325.3 1896.6,1331.7 1919.4,1335.8 1931.7,1355.3 1933.4,1379.1 1928,1402.4 
				1921.9,1425.5 1912.7,1447.5 1903.6,1468.6 1925.2,1476.9 1947.2,1485.3 1969.1,1493.9 1991.7,1500.7 2013.9,1508.6 
				2036.1,1516.6 2058.2,1524.6 2080.2,1533 2104,1523.1 2128.4,1514.8 2152.6,1506 2176.8,1497.1 2200.4,1486.8 2224.6,1478.3 
				2207,1462 2193.7,1441.7 2182.5,1420.2 2174.4,1397.4 2168.7,1373.7 2167.7,1349.3 2171.1,1325.2 2176.6,1301.6 2183.9,1275.6 
							"/>
			<polyline class="st5" points="1983.2,951.7 1978.7,927.9 1968.7,906.1 1949.4,892 1926.4,885.1 1902.2,884.1 1877.9,886.4 
				1867.1,908 1857.7,930.1 1853.2,953.7 1848.3,977.2 1845,1001 1845.6,1025.1 1841.5,1048.2 1834.6,1070.4 1825,1091.7 
				1812.7,1111.7 1797.7,1129.7 1784.7,1148.4 1798.5,1161.8 1819.3,1166.1 1840.3,1169.2 1838.2,1193.1 1837,1217.1 1836.9,1241.1 
				1840.9,1264.7 1846.9,1287.8 1855.4,1310.2 1873.7,1325.3 1896.6,1331.7 1919.4,1335.8 1931.7,1355.3 1933.4,1379.1 1928,1402.4 
				1921.9,1425.5 1912.7,1447.5 1903.6,1468.6 1925.2,1476.9 1947.2,1485.3 1969.1,1493.9 1991.7,1500.7 2013.9,1508.6 
				2036.1,1516.6 2058.2,1524.6 2080.2,1533 2104,1523.1 2128.4,1514.8 2152.6,1506 2176.8,1497.1 2200.4,1486.8 2224.6,1478.3 
				2207,1462 2193.7,1441.7 2182.5,1420.2 2174.4,1397.4 2168.7,1373.7 2167.7,1349.3 2171.1,1325.2 2176.6,1301.6 2183.9,1275.6 
							"/>
		</g>
		<g>
			<polygon class="st9" points="2038.5,803.2 2014.8,803.5 1991.6,808.2 1968.8,814.8 1946.9,823.7 1926.7,836.1 1907.7,850.1 
				1892.3,867.9 1877.6,886.9 1902.4,894.6 1919.6,913.5 1931.7,936 1942.7,959.1 1958.6,979 1980,993.5 1977.5,1015.5 1973.9,1037 
				1972.2,1058.7 1971,1079.6 1988,1064.2 2008.9,1052.9 2032,1048 2052.6,1060.5 2062.6,1083.6 2060.3,1108.2 2049.5,1130.2 
				2035.6,1150.4 2019.1,1168.6 2002.1,1185.7 2011,1208.2 2024.8,1228.8 2042.5,1246.2 2063.1,1259.9 2085.8,1269.8 2109.7,1276.3 
				2134.4,1277.6 2159,1277.6 2183.7,1275.5 2191.7,1253.7 2201.7,1232.6 2212.2,1211.8 2225.4,1192.5 2235.3,1171.3 2246.9,1151.1 
				2256.7,1130 2264.2,1107.8 2270.2,1085.3 2275.3,1062.6 2280.5,1038.5 2283.2,1014 2280.8,989.5 2279,965.1 2274.3,941 
				2264.7,918.4 2253.8,896.4 2239.3,876.4 2221.8,859.1 2203,843.2 2181.5,831.1 2159.3,820.4 2136,812.4 2111.9,807.4 
				2087.7,802.7 2063.1,802 			"/>
			<polygon class="st5" points="2038.5,803.2 2014.8,803.5 1991.6,808.2 1968.8,814.8 1946.9,823.7 1926.7,836.1 1907.7,850.1 
				1892.3,867.9 1877.6,886.9 1902.4,894.6 1919.6,913.5 1931.7,936 1942.7,959.1 1958.6,979 1980,993.5 1977.5,1015.5 1973.9,1037 
				1972.2,1058.7 1971,1079.6 1988,1064.2 2008.9,1052.9 2032,1048 2052.6,1060.5 2062.6,1083.6 2060.3,1108.2 2049.5,1130.2 
				2035.6,1150.4 2019.1,1168.6 2002.1,1185.7 2011,1208.2 2024.8,1228.8 2042.5,1246.2 2063.1,1259.9 2085.8,1269.8 2109.7,1276.3 
				2134.4,1277.6 2159,1277.6 2183.7,1275.5 2191.7,1253.7 2201.7,1232.6 2212.2,1211.8 2225.4,1192.5 2235.3,1171.3 2246.9,1151.1 
				2256.7,1130 2264.2,1107.8 2270.2,1085.3 2275.3,1062.6 2280.5,1038.5 2283.2,1014 2280.8,989.5 2279,965.1 2274.3,941 
				2264.7,918.4 2253.8,896.4 2239.3,876.4 2221.8,859.1 2203,843.2 2181.5,831.1 2159.3,820.4 2136,812.4 2111.9,807.4 
				2087.7,802.7 2063.1,802 			"/>
		</g>
	</g>
	<g>
		<polyline class="st5" points="1136,449.2 1155.4,463.5 1173.8,479.2 1192.4,494.6 1210.4,510.8 1228.6,526.6 1246.5,542.8 
			1264.8,558.7 1281.7,575.9 1297.9,593.9 1316,610.1 1332.4,627.8 1348.8,645.6 1364.1,664.3 1379.3,683.1 1395.1,701.4 
			1411.2,719.4 1425.1,739.3 1440.4,758 1454.4,777.7 1467.4,798.1 1481.5,817.8 1494.6,838 1508.3,857.9 1520.9,878.5 
			1532.2,899.9 1544.5,920.7 1556.6,941.7 1568.1,963 1577.4,985.3 1587.7,1007.2 1598.8,1028.7 1608.4,1050.9 1616.9,1073.5 
			1624.2,1096.6 1633.1,1119.1 1640.8,1142 1647.8,1165.1 1653.5,1188.7 1658.9,1212.2 1664.7,1235.7 1669.3,1259.4 1673.6,1283.2 
					"/>
	</g>
	<g>
		<polyline class="st5" points="1187.8,1283.2 1197.7,1261.5 1206.7,1239.4 1216.4,1217.7 1227.9,1196.8 1237.7,1175 1249.7,1154.4 
			1260.8,1133.2 1272.5,1112.5 1285.7,1092.6 1298.1,1072.3 1310.1,1051.7 1323.1,1031.6 1337,1012.3 1350,992.3 1363.5,972.7 
			1376.4,952.6 1390.7,933.5 1406.1,915.2 1419.4,895.4 1435.2,877.5 1450.3,859.1 1464.4,839.8 1480.4,822 1496.3,804.3 
			1511.4,785.9 1527.8,768.6 1544.3,751.3 1561.2,734.5 1577.6,717.2 1593.7,699.6 1611,683.2 1628.9,667.4 1646.3,651.1 
			1663.6,634.7 1681.9,619.4 1698.9,602.6 1717.2,587.3 1736.5,573.2 1755.2,558.5 1773.2,542.7 1792.4,528.6 1812.2,515.3 
			1830.5,499.8 1850.7,487.2 1870.1,473.4 1890.4,460.8 1910.1,447.3 1930.1,434.5 1950.4,421.9 1971.1,410.1 1991.9,398.3 
			2011.9,385.4 2032.7,373.7 2054.1,363.1 2074.8,351.3 2096.8,342 2118,330.9 2139.1,319.8 2160.8,309.9 2182.8,300.6 
			2204.4,290.5 2227,282.8 2248.7,272.8 2271,264.4 2293.7,257.1 2315.6,247.6 2338.4,240.5 2361,232.8 2383.9,226.1 2406.3,218.1 
			2429.2,211.2 2452.3,205.2 2475,197.8 		"/>
	</g>
	<g>
		<polygon class="st9" points="1730.3,874 1705.7,872.7 1681.8,872.7 1657.9,873.5 1633.9,873.9 1610,873.9 1586,872.8 
			1562.1,872.8 1538.2,873.6 1514.2,872.6 1490.3,874.2 1466.3,874.3 1442.4,872.4 1418.4,874.4 1394.5,872.7 1370.6,872.7 
			1346.6,874.2 1322.7,873.3 1298.7,874 1274.8,874.1 1250.8,873.9 1226.9,874.2 1202.9,874.1 1179,873.6 1155,872.9 1131.1,872.6 
			1107.2,872.6 1083.2,873.5 1059.3,872.5 1035.3,873.1 1011.4,872.6 987.4,873.1 963.3,873.6 963.1,849.9 964.3,826.3 962.7,802.7 
			963.8,779.2 962.7,755.6 962.6,732 964.3,708.4 962.8,684.9 963.9,661.3 963.7,637.7 963.5,614.2 964.1,590.6 964.2,567 
			963.1,543.4 964.1,519.9 963.8,496.3 963.7,472.7 963.9,449.2 964.3,425.6 964.2,402 962.6,378.4 963.5,354.9 963.6,331.3 
			963.6,307.7 963.2,283.9 987.4,283.6 1011.3,283.4 1035.3,284.3 1059.2,284.4 1083.2,284 1107.1,284.7 1131,284.3 1155,284.5 
			1178.9,285.1 1202.9,283.2 1226.8,284 1250.8,283.2 1274.7,284.9 1298.6,284.3 1322.6,284.8 1346.5,284.6 1370.5,284 
			1394.4,284.6 1418.4,283.3 1442.3,285 1466.3,283.5 1490.2,283.8 1514.2,284 1538.1,284.2 1562,284.8 1586,285.1 1609.9,284.1 
			1633.9,285 1657.8,283.3 1681.8,283.4 1705.7,284.9 1729.6,284.2 1728.7,307.7 1730.5,331.3 1729.4,354.8 1729.4,378.4 
			1730.3,402 1729.4,425.5 1730.1,449.1 1728.9,472.7 1729.3,496.3 1728.7,519.8 1730.7,543.4 1729.7,567 1730.3,590.5 
			1730.4,614.1 1730,637.7 1729,661.3 1728.9,684.8 1730.5,708.4 1728.8,732 1729.9,755.5 1729.8,779.1 1730.5,802.7 1729.8,826.3 
			1729.1,849.9 		"/>
		<polygon class="st5" points="1730.3,874 1705.7,872.7 1681.8,872.7 1657.9,873.5 1633.9,873.9 1610,873.9 1586,872.8 
			1562.1,872.8 1538.2,873.6 1514.2,872.6 1490.3,874.2 1466.3,874.3 1442.4,872.4 1418.4,874.4 1394.5,872.7 1370.6,872.7 
			1346.6,874.2 1322.7,873.3 1298.7,874 1274.8,874.1 1250.8,873.9 1226.9,874.2 1202.9,874.1 1179,873.6 1155,872.9 1131.1,872.6 
			1107.2,872.6 1083.2,873.5 1059.3,872.5 1035.3,873.1 1011.4,872.6 987.4,873.1 963.3,873.6 963.1,849.9 964.3,826.3 962.7,802.7 
			963.8,779.2 962.7,755.6 962.6,732 964.3,708.4 962.8,684.9 963.9,661.3 963.7,637.7 963.5,614.2 964.1,590.6 964.2,567 
			963.1,543.4 964.1,519.9 963.8,496.3 963.7,472.7 963.9,449.2 964.3,425.6 964.2,402 962.6,378.4 963.5,354.9 963.6,331.3 
			963.6,307.7 963.2,283.9 987.4,283.6 1011.3,283.4 1035.3,284.3 1059.2,284.4 1083.2,284 1107.1,284.7 1131,284.3 1155,284.5 
			1178.9,285.1 1202.9,283.2 1226.8,284 1250.8,283.2 1274.7,284.9 1298.6,284.3 1322.6,284.8 1346.5,284.6 1370.5,284 
			1394.4,284.6 1418.4,283.3 1442.3,285 1466.3,283.5 1490.2,283.8 1514.2,284 1538.1,284.2 1562,284.8 1586,285.1 1609.9,284.1 
			1633.9,285 1657.8,283.3 1681.8,283.4 1705.7,284.9 1729.6,284.2 1728.7,307.7 1730.5,331.3 1729.4,354.8 1729.4,378.4 
			1730.3,402 1729.4,425.5 1730.1,449.1 1728.9,472.7 1729.3,496.3 1728.7,519.8 1730.7,543.4 1729.7,567 1730.3,590.5 
			1730.4,614.1 1730,637.7 1729,661.3 1728.9,684.8 1730.5,708.4 1728.8,732 1729.9,755.5 1729.8,779.1 1730.5,802.7 1729.8,826.3 
			1729.1,849.9 		"/>
	</g>
	<g>
		<polyline class="st10" points="1595.6,322.1 1612.8,340.3 1631.4,357.2 1649.2,375 1666.7,393 1683.7,411.5 		"/>
	</g>
	<g>
		<polyline class="st10" points="1594.9,410.4 1612.6,392.6 1630.8,375.3 1648.4,357.3 1666.4,339.8 1684.2,322.1 		"/>
	</g>
	<path class="st11" d="M1506.2,1491.7c4.3-15.2,9.9-35.9,14.2-51.1c2.4-8.5,5.1-17.5,11.6-23.6c5.8-5.5,13.8-7.8,20.9-11.6
		c15.1-8,25.8-22.8,31.6-38.8s7.2-33.4,7.1-50.5c-0.1-19.2-6-43.3-20.6-55.8c1.2,24.5-1.4,48.8-2.3,72.6
		c4.8-88.2,0.5-136.8,3.5-225.1c1-28.5-3.3-38.6-10.3-38.6c-6.2,0-15.2,7.1-18,27.7c-6.5,48.1-6.6,61.2-8.9,109.6
		c-12.8-2.4-26.5,1.4-36.3,9.9c-2.7,2.4-5.5,5.2-9,5.6c-2.1,0.2-4.1-0.4-6.1-0.9c-8.3-1.8-17.3,0.2-24.1,5.4
		c-7.4,5.7-12.5,15.1-21.6,17.5c-6.4,1.7-13.9,3.7-19.5,7.2c-6.3,3.9-7,12.5-7,19.9c-0.1,36.7-0.1,70.9,0.8,107.5
		c-60.7,105.4-121.4,213.6-182.1,319C1230.1,1697.6,1419.9,1534,1506.2,1491.7"/>
	<g>
		<polygon class="st9" points="2660.3,1783.4 2660.5,1759.5 2660.9,1735 2658.5,1710.7 2657.8,1686.3 2656.6,1662 2654.6,1637.6 
			2651.2,1613.5 2647.9,1589.3 2642.5,1565.6 2636.7,1541.8 2626.5,1519.6 2612.9,1499.4 2597,1481.1 2578.3,1465.4 2556.3,1455 
			2533.4,1446.5 2509.9,1440.3 2485.7,1435.8 2461.4,1432.3 2436.9,1429.6 2412.2,1429.6 2387.6,1431.6 2363.1,1434.3 2338.9,1439 
			2314.7,1443.7 2291,1450.6 2267.3,1457.5 2243.9,1465.2 2219.6,1470 2195.9,1476.8 2171.8,1481.7 2147.8,1487.3 2123.2,1489.7 
			2098.7,1492.4 2074.1,1493 2050.4,1491.6 2027,1488.1 2003.4,1485.4 1980.3,1479.8 1958.3,1471.1 1935.9,1463.3 1913.6,1455.3 
			1891.1,1447.9 1868.6,1440.7 1845.2,1436.9 1821.8,1433.5 1798.1,1431.7 1774.4,1431.7 1750.7,1433.3 1727.4,1437.4 
			1703.7,1439.3 1680.9,1445.5 1658,1451.2 1635.5,1458.1 1613.5,1466.6 1591.8,1475.7 1570.3,1485.4 1549.5,1496.6 1528.5,1507.3 
			1508.7,1520.1 1487.9,1531.4 1468.1,1544.1 1448.8,1557.7 1429.5,1571.3 1410.3,1584.9 1391.2,1598.7 1372.7,1613.3 1354,1627.7 
			1335.4,1642.1 1317.4,1657.4 1298.8,1671.9 1281.7,1688.2 1263.3,1702.9 1245.7,1718.6 1228.3,1734.5 1211.6,1751.1 1195.1,1768 
			1177.4,1784.6 1201.6,1784.7 1225.5,1783.1 1249.4,1783 1273.3,1784.2 1297.2,1784.4 1321.1,1784.6 1345,1783.4 1369,1783.1 
			1392.9,1784.3 1416.8,1784.4 1440.7,1784 1464.6,1783.6 1488.5,1784.2 1512.5,1784.6 1536.4,1783.4 1560.3,1784.3 1584.2,1784.5 
			1608.1,1783.3 1632,1784.5 1655.9,1784.6 1679.9,1783.2 1703.8,1784.7 1727.7,1783.7 1751.6,1783.1 1775.5,1783.1 1799.4,1783.2 
			1823.4,1784.6 1847.3,1784.5 1871.2,1784.7 1895.1,1784 1919,1784.8 1942.9,1783.9 1966.8,1784.2 1990.7,1784.5 2014.7,1783.4 
			2038.6,1783.1 2062.5,1784.6 2086.4,1783.3 2110.3,1783.3 2134.2,1784.5 2158.2,1784.1 2182.1,1784.1 2206,1783.8 2229.9,1784.1 
			2253.8,1784.4 2277.7,1783.7 2301.7,1784.4 2325.6,1784.8 2349.5,1784.2 2373.4,1783.1 2397.3,1784.4 2421.2,1784.8 
			2445.2,1784.7 2469.1,1783.7 2493,1783.6 2516.9,1783.6 2540.8,1784.9 2564.8,1783.5 2588.7,1783.2 2612.6,1784.7 2636.5,1784.1 
					"/>
	</g>
	<g>
		<polygon class="st12" points="2640.6,1765 2640.5,1741.5 2641,1717.1 2640.6,1692.6 2638.2,1668.3 2636.6,1644 2635.4,1619.6 
			2631.8,1595.5 2627.6,1571.5 2623.3,1547.5 2615.8,1524.3 2606.8,1501.7 2593.5,1481.3 2578.2,1462.3 2558,1448.7 2536.7,1437 
			2513.7,1429.1 2490.6,1421.2 2466.3,1416.8 2442,1412.9 2417.3,1412.1 2392.7,1412.5 2368,1413.3 2343.6,1416.6 2319.2,1420.5 
			2295.3,1426.6 2271.3,1432.2 2247.6,1438.9 2224.2,1446.6 2200.4,1453.1 2176.3,1458.4 2152.5,1465.1 2128.3,1469.8 2103.7,1472 
			2079.2,1473.5 2054.5,1474.4 2030.8,1473.7 2007.4,1470.3 1983.9,1467.2 1960.9,1461.5 1938.7,1453.2 1915.9,1446.3 
			1894.4,1436.4 1871.5,1430 1849.1,1422.1 1825.7,1418.3 1802.2,1415.2 1778.6,1413.5 1754.9,1414.7 1731.3,1416 1707.8,1419.7 
			1684.2,1421.7 1661.4,1427.7 1638.6,1433.5 1615.7,1439.5 1594.1,1448.9 1572.2,1457.6 1550.9,1467.7 1530.3,1479.3 
			1509.7,1490.7 1488.8,1501.7 1468.5,1513.6 1448.6,1526.2 1429.5,1540.1 1409.7,1552.9 1390.6,1566.7 1371.8,1580.9 
			1352.8,1594.9 1334.4,1609.7 1315.4,1623.7 1297,1638.4 1279,1653.6 1261.9,1669.9 1243.9,1685.1 1225.8,1700.2 1209.5,1717.3 
			1192.3,1733.4 1174.4,1748.8 1157.9,1766.4 1182,1764.9 1205.9,1766.6 1229.8,1765.5 1253.8,1765.5 1277.7,1766.6 1301.6,1766.5 
			1325.5,1766.4 1349.4,1766.4 1373.3,1765.2 1397.2,1765.1 1421.2,1765.7 1445.1,1766.4 1469,1765.4 1492.9,1766.8 1516.8,1766.7 
			1540.7,1765.4 1564.6,1765.2 1588.6,1766.9 1612.5,1766.8 1636.4,1764.9 1660.3,1766.1 1684.2,1766 1708.1,1766.8 1732.1,1765.9 
			1756,1765.3 1779.9,1765.1 1803.8,1765.3 1827.7,1766.6 1851.6,1765.9 1875.5,1765.4 1899.5,1766.1 1923.4,1765.4 1947.3,1766.5 
			1971.2,1764.9 1995.1,1764.9 2019,1766.1 2042.9,1766.1 2066.8,1766.2 2090.8,1765.2 2114.7,1765.2 2138.6,1765.6 2162.5,1765.8 
			2186.4,1766.4 2210.3,1765.2 2234.3,1766.6 2258.2,1765.6 2282.1,1766.6 2306,1766.6 2329.9,1765.1 2353.9,1765.4 2377.8,1766.7 
			2401.7,1765.8 2425.6,1765.1 2449.5,1765 2473.4,1765.6 2497.4,1765.3 2521.3,1765.7 2545.2,1765.7 2569.1,1766.4 2593,1765.2 
			2617,1765.3 		"/>
		<polygon class="st5" points="2640.6,1765 2640.5,1741.5 2641,1717.1 2640.6,1692.6 2638.2,1668.3 2636.6,1644 2635.4,1619.6 
			2631.8,1595.5 2627.6,1571.5 2623.3,1547.5 2615.8,1524.3 2606.8,1501.7 2593.5,1481.3 2578.2,1462.3 2558,1448.7 2536.7,1437 
			2513.7,1429.1 2490.6,1421.2 2466.3,1416.8 2442,1412.9 2417.3,1412.1 2392.7,1412.5 2368,1413.3 2343.6,1416.6 2319.2,1420.5 
			2295.3,1426.6 2271.3,1432.2 2247.6,1438.9 2224.2,1446.6 2200.4,1453.1 2176.3,1458.4 2152.5,1465.1 2128.3,1469.8 2103.7,1472 
			2079.2,1473.5 2054.5,1474.4 2030.8,1473.7 2007.4,1470.3 1983.9,1467.2 1960.9,1461.5 1938.7,1453.2 1915.9,1446.3 
			1894.4,1436.4 1871.5,1430 1849.1,1422.1 1825.7,1418.3 1802.2,1415.2 1778.6,1413.5 1754.9,1414.7 1731.3,1416 1707.8,1419.7 
			1684.2,1421.7 1661.4,1427.7 1638.6,1433.5 1615.7,1439.5 1594.1,1448.9 1572.2,1457.6 1550.9,1467.7 1530.3,1479.3 
			1509.7,1490.7 1488.8,1501.7 1468.5,1513.6 1448.6,1526.2 1429.5,1540.1 1409.7,1552.9 1390.6,1566.7 1371.8,1580.9 
			1352.8,1594.9 1334.4,1609.7 1315.4,1623.7 1297,1638.4 1279,1653.6 1261.9,1669.9 1243.9,1685.1 1225.8,1700.2 1209.5,1717.3 
			1192.3,1733.4 1174.4,1748.8 1157.9,1766.4 1182,1764.9 1205.9,1766.6 1229.8,1765.5 1253.8,1765.5 1277.7,1766.6 1301.6,1766.5 
			1325.5,1766.4 1349.4,1766.4 1373.3,1765.2 1397.2,1765.1 1421.2,1765.7 1445.1,1766.4 1469,1765.4 1492.9,1766.8 1516.8,1766.7 
			1540.7,1765.4 1564.6,1765.2 1588.6,1766.9 1612.5,1766.8 1636.4,1764.9 1660.3,1766.1 1684.2,1766 1708.1,1766.8 1732.1,1765.9 
			1756,1765.3 1779.9,1765.1 1803.8,1765.3 1827.7,1766.6 1851.6,1765.9 1875.5,1765.4 1899.5,1766.1 1923.4,1765.4 1947.3,1766.5 
			1971.2,1764.9 1995.1,1764.9 2019,1766.1 2042.9,1766.1 2066.8,1766.2 2090.8,1765.2 2114.7,1765.2 2138.6,1765.6 2162.5,1765.8 
			2186.4,1766.4 2210.3,1765.2 2234.3,1766.6 2258.2,1765.6 2282.1,1766.6 2306,1766.6 2329.9,1765.1 2353.9,1765.4 2377.8,1766.7 
			2401.7,1765.8 2425.6,1765.1 2449.5,1765 2473.4,1765.6 2497.4,1765.3 2521.3,1765.7 2545.2,1765.7 2569.1,1766.4 2593,1765.2 
			2617,1765.3 		"/>
	</g>
	<g>
		<polygon class="st7" points="1644.7,578.8 1627.6,595.9 1609.8,612.7 1590.8,628.3 1571.9,644 1552.2,658.6 1531,671 
			1510.3,684.3 1488.7,696 1466.1,705.6 1443.1,714.4 1419.4,720.8 1395.3,725.3 1371.1,729.4 1346.6,731.2 1322,730.2 1297.7,726 
			1273.7,720.8 1250.2,713.8 1227.4,704.8 1204.7,695.5 1183,683.9 1161.4,672.2 1141,658.4 1121.4,643.7 1101.6,629.2 
			1083.1,613.1 1065.2,596.3 1047.9,578.8 1064.9,561.1 1082.9,544.4 1101.9,528.8 1120.7,512.9 1141.3,499.6 1161.6,485.7 
			1182.8,473.4 1204.6,462 1227.1,452.1 1249.9,442.9 1273.7,436.5 1297.5,430.6 1322.1,428.9 1346.6,427.6 1371.1,427.7 
			1395.5,431 1419.4,436.8 1443.2,442.9 1465.7,453 1488.8,461.4 1510.2,473.5 1531.8,485.2 1552.1,499.2 1572.2,513.3 
			1591.5,528.6 1609.6,545.1 1628.4,560.9 		"/>
		<polygon class="st13" points="1644.7,578.8 1627.6,595.9 1609.8,612.7 1590.8,628.3 1571.9,644 1552.2,658.6 1531,671 
			1510.3,684.3 1488.7,696 1466.1,705.6 1443.1,714.4 1419.4,720.8 1395.3,725.3 1371.1,729.4 1346.6,731.2 1322,730.2 1297.7,726 
			1273.7,720.8 1250.2,713.8 1227.4,704.8 1204.7,695.5 1183,683.9 1161.4,672.2 1141,658.4 1121.4,643.7 1101.6,629.2 
			1083.1,613.1 1065.2,596.3 1047.9,578.8 1064.9,561.1 1082.9,544.4 1101.9,528.8 1120.7,512.9 1141.3,499.6 1161.6,485.7 
			1182.8,473.4 1204.6,462 1227.1,452.1 1249.9,442.9 1273.7,436.5 1297.5,430.6 1322.1,428.9 1346.6,427.6 1371.1,427.7 
			1395.5,431 1419.4,436.8 1443.2,442.9 1465.7,453 1488.8,461.4 1510.2,473.5 1531.8,485.2 1552.1,499.2 1572.2,513.3 
			1591.5,528.6 1609.6,545.1 1628.4,560.9 		"/>
	</g>
	<g>
		<polygon class="st14" points="1492.8,556.8 1491,580.5 1483.2,602.8 1474.7,624.9 1460.6,643.8 1443.6,660.2 1424.9,674.6 
			1403,683.6 1380.4,690.1 1356.9,691.2 1333.4,690 1310.3,684.9 1289.6,673.3 1269.3,661.2 1254,643.2 1240.5,624 1229,603.4 
			1223.2,580.4 1221.1,556.8 1222.6,534.1 1228.6,512.3 1238.5,491.9 1251.1,473.2 1266.4,456.6 1284.5,443.2 1304.4,432.7 
			1330.3,428.5 1356.9,430 1381.3,429.6 1405.7,432.3 1427.7,442.5 1446.7,455.3 1462.9,471.5 1475.3,490.9 1485,511.7 1490.2,534 
					"/>
	</g>
	<g>
		<polygon class="st5" points="1482.3,551.1 1479.2,574.5 1474.6,597.7 1464.6,619.2 1450.1,637.9 1433.4,654.6 1414.1,668 
			1393.1,678.9 1370.2,685.1 1346.6,686.6 1323,684.5 1300.4,677.8 1278.6,668.9 1260,654.2 1242.7,638.2 1230,618.4 1220.1,597.1 
			1212.6,574.7 1210.7,551.1 1214.1,527.7 1219.3,504.7 1228.7,483 1242.2,463.5 1259.4,447.2 1278.6,433.4 1300.2,423.7 
			1323,417.7 1346.6,416.3 1370.2,417.2 1393.1,423.3 1414.4,433.6 1433.1,448 1450.7,463.7 1464.1,483.2 1472.9,505.1 
			1479.9,527.6 		"/>
	</g>
	<g>
		<polygon class="st9" points="1404.2,551.1 1400,573.2 1386.3,590.8 1368.1,603 1346.6,609.2 1324.8,603.7 1306.3,591.4 
			1294.6,572.6 1289.4,551.1 1293.2,529 1305.6,510.1 1324.5,497.8 1346.6,494.6 1368.4,498.3 1387.3,510.4 1399.2,529.3 		"/>
		<polygon class="st13" points="1404.2,551.1 1400,573.2 1386.3,590.8 1368.1,603 1346.6,609.2 1324.8,603.7 1306.3,591.4 
			1294.6,572.6 1289.4,551.1 1293.2,529 1305.6,510.1 1324.5,497.8 1346.6,494.6 1368.4,498.3 1387.3,510.4 1399.2,529.3 		"/>
	</g>
	<g>
		<polygon class="st14" points="2402.2,578.5 2378.5,578.4 2354.5,579.1 2330.5,579.8 2306.5,578.4 2282.5,579.7 2258.5,579.6 
			2234.5,578.8 2210.5,579.7 2186.5,579.5 2162.5,577.9 2138.5,579.8 2114.5,579 2090.5,579.3 2066.5,578.5 2041.9,579.4 
			2042,554.6 2042.7,530.4 2042.2,506.2 2041.6,482.1 2042,457.9 2041.5,433.7 2041.6,409.5 2041.5,385.3 2042.4,361.1 2043,336.9 
			2042.9,312.7 2042.5,288.5 2041.8,264.3 2042.3,240.1 2042.5,215.9 2043,191.7 2042.6,167.5 2043.2,143.3 2042,119.1 2041.9,94.4 
			2066.5,94.4 2090.5,94.2 2114.5,94.5 2138.5,94.7 2162.5,95.1 2186.5,94.9 2210.5,95.7 2234.5,95.7 2258.5,94.9 2282.5,95.8 
			2306.5,94.6 2330.5,95.9 2354.5,95.6 2378.5,95 2403,94.5 2402.9,119.1 2401.6,143.3 2402.1,167.5 2402.6,191.7 2402.8,215.9 
			2403.3,240.1 2401.7,264.3 2402.7,288.5 2403.5,312.7 2402.8,336.9 2401.7,361 2402,385.2 2403.5,409.4 2402.3,433.6 
			2403.1,457.8 2402.2,482 2402.4,506.2 2401.7,530.4 2402.4,554.6 		"/>
		<polygon class="st5" points="2402.2,578.5 2378.5,578.4 2354.5,579.1 2330.5,579.8 2306.5,578.4 2282.5,579.7 2258.5,579.6 
			2234.5,578.8 2210.5,579.7 2186.5,579.5 2162.5,577.9 2138.5,579.8 2114.5,579 2090.5,579.3 2066.5,578.5 2041.9,579.4 
			2042,554.6 2042.7,530.4 2042.2,506.2 2041.6,482.1 2042,457.9 2041.5,433.7 2041.6,409.5 2041.5,385.3 2042.4,361.1 2043,336.9 
			2042.9,312.7 2042.5,288.5 2041.8,264.3 2042.3,240.1 2042.5,215.9 2043,191.7 2042.6,167.5 2043.2,143.3 2042,119.1 2041.9,94.4 
			2066.5,94.4 2090.5,94.2 2114.5,94.5 2138.5,94.7 2162.5,95.1 2186.5,94.9 2210.5,95.7 2234.5,95.7 2258.5,94.9 2282.5,95.8 
			2306.5,94.6 2330.5,95.9 2354.5,95.6 2378.5,95 2403,94.5 2402.9,119.1 2401.6,143.3 2402.1,167.5 2402.6,191.7 2402.8,215.9 
			2403.3,240.1 2401.7,264.3 2402.7,288.5 2403.5,312.7 2402.8,336.9 2401.7,361 2402,385.2 2403.5,409.4 2402.3,433.6 
			2403.1,457.8 2402.2,482 2402.4,506.2 2401.7,530.4 2402.4,554.6 		"/>
	</g>
	<g>
		<polyline class="st5" points="2094.5,256.1 2117.5,254.9 2140.5,256.3 2163.5,255.3 2186.5,256.3 2209.5,256.3 2232.5,254.8 
			2255.6,255.1 2278.6,256.4 2301.6,255.5 2324.6,254.8 2347.6,254.7 		"/>
	</g>
	<g>
		<polyline class="st5" points="2094.5,205.4 2117.5,204.7 2140.5,205.8 2163.5,204.2 2186.5,204.2 2209.5,205.3 2232.5,205.4 
			2255.6,205.5 2278.6,204.5 2301.6,204.4 2324.6,204.9 2347.6,205.1 		"/>
	</g>
	<g>
		<polyline class="st5" points="2094.5,155.7 2117.5,153.8 2140.5,155 2163.5,154.9 2186.5,155.7 2209.5,154.8 2232.5,154.2 
			2255.6,154 2278.6,154.2 2301.6,155.5 2324.6,154.8 2347.6,154.3 		"/>
	</g>
	<g>
		<polyline class="st5" points="2094.5,306.5 2117.5,306.5 2140.5,305.2 2163.5,305.2 2186.5,305.8 2209.5,306.5 2232.5,305.5 
			2255.6,306.9 2278.6,306.7 2301.6,305.5 2324.6,305.3 2347.6,307 		"/>
	</g>
	<g>
		<polyline class="st5" points="2094.5,356.4 2117.5,357.3 2140.5,355.7 2163.5,355.7 2186.5,357 2209.5,356.9 2232.5,355.4 
			2255.6,357.1 2278.6,356 2301.6,356 2324.6,357.1 2347.6,357 		"/>
	</g>
	<g>
		<polyline class="st5" points="2094.5,407.2 2117.5,407.3 2140.5,406.2 2163.5,406.9 2186.5,406.8 2209.5,406.5 2232.5,406.8 
			2255.6,406.4 2278.6,407.4 2301.6,407.7 2324.6,407.6 2347.6,406.3 		"/>
	</g>
	<g>
		<polyline class="st5" points="2094.5,457.3 2117.5,456.3 2140.5,457.7 2163.5,456.4 2186.5,456.7 2209.5,458.1 2232.5,457 
			2255.6,457.6 2278.6,457.4 2301.6,456.5 2324.6,456.3 2347.6,457.2 		"/>
	</g>
	<g>
		<polyline class="st5" points="2094.5,506.9 2118.7,508.4 2142.9,507 2167.1,508.4 2191.3,507.5 2215.5,507.7 2239.7,508.3 
			2263.9,507.5 		"/>
	</g>
	<path class="st11" d="M1871.6,1325c0,0,65.1,19.6,107.9-69.3"/>
	<path class="st15" d="M1986.8,1107.8c0,0,9-42,41.3-36.6c22.2,3.7,5.2,77.6-44.8,101.6c-25.1,12-23.7-20.1,3-32
		c17.5-7.8,13.9-24.8-6.7-18.3"/>
	
		<ellipse transform="matrix(0.1295 -0.9916 0.9916 0.1295 552.5023 2749.1685)" class="st16" cx="1842.1" cy="1059.9" rx="51.7" ry="17.4"/>
	<line class="st17" x1="1855.6" y1="1040.5" x2="1982.5" y2="1069.2"/>
</g>
</svg>
